<svg width="1024" height="1024" viewBox="0 0 1024 1024" xmlns="http://www.w3.org/2000/svg"><title>arayofsunshine</title><g fill="none"><path d="M18.298 758.995c7.729-37.03 22.365-91.268 48.854-161.905 16.493-43.983 41.958-89.145 65.637-133.085 26.25-48.71 144.68-205.954 266.82-288.306 69.53-46.88 140.504-86.403 201.451-110.503C688.361 30.675 754.282 21.89 759.057 18.3c2.22-1.669 177.148-18.332 226.667-7.876 37.297 7.876 65.602 120.903-5.865 129.253-71.467 8.35-105.854 1.047-118.221 9.61-33.795 23.402-186.294 26.411-248.709 45.905-82.145 25.657-150.005 87.457-164.922 100.18-109.318 93.23-220.175 272.337-241.787 311.873-29.94 79.222-31.764 135.626-41.321 183.742-13.038 65.637-27.165 116.04-24.033 189.638-38.67 25.103-98.823 57.896-130.03 5.202-24.424-73.048-1.131-152.428 7.462-226.833z" fill="#FD3C4F"/><path d="M599.958 195.194c125.498-22.395 250.32-59.719 378.977-54.742 59.138 35.74 26.184 94.78-.677 138.438-379.88-26.466-726.13 320.31-699.72 701.017-43.338 27.37-102.701 60.171-137.913.905-5.417-127.581 25.055-253.353 65.232-373.469 61.17-119.89 150.101-222.135 243.322-317.595 43.338-41.396 95.704-71.481 150.779-94.554z" fill="#FFA500"/><path d="M278.422 980.2c-26.456-380.577 320.401-727.235 700.95-700.777 44.318 19.673 52.91 97.462.678 112.386-321.759-2.261-591.738 267.286-589.25 589.069-14.02 52.462-93.159 43.869-112.378-.679z" fill="#FFCE29"/><path d="M391.017 980.223c-2.488-321.86 267.62-591.47 589.532-589.209 26.694 47.951 49.316 103.819 1.81 147.924-246.129-17.416-460.812 197.233-443.393 443.32-43.887 47.952-99.99 24.655-147.949-2.035z" fill="#98C900"/><path d="M539.99 982.93c-17.407-245.877 197.142-460.34 443.117-442.94 24.417 33.673 32.33 72.543 27.582 113.447l-26.451 5.424c-174.76 7.232-317.869 150.51-325.33 324.973l-5.425 26.893c-40.92 4.746-79.806-3.616-113.492-27.797z" fill="#35C9E6"/></g></svg>
