<?xml version="1.0" encoding="UTF-8"?>
<svg width="1024px" height="1024px" viewBox="0 0 1024 1024" version="1.1" xmlns="http://www.w3.org/2000/svg" xmlns:xlink="http://www.w3.org/1999/xlink">
    <title>1024x1024@1x</title>
    <g id="1024x1024" stroke="none" stroke-width="1" fill="none" fill-rule="evenodd">
        <g id="太阳晴" transform="translate(0.000000, 9.000000)" fill="#FE9249" fill-rule="nonzero">
            <path d="M512,132 C614.283837,132 707.030116,173.614366 774.207875,240.792125 C841.385634,307.969884 883,400.716163 883,503 C883,605.290285 841.387584,698.034899 774.212297,765.210186 C707.034156,832.388327 614.286017,874 512,874 C409.716163,874 316.969884,832.385634 249.792125,765.207875 C182.614366,698.030116 141,605.283837 141,503 C141,400.716163 182.614366,307.969884 249.792125,240.792125 C316.969884,173.614366 409.716163,132 512,132 Z" id="路径" stroke="#FE9249" stroke-width="30"></path>
            <path d="M485,27 C485,41.9116882 497.088312,54 512,54 C526.911688,54 539,41.9116882 539,27 C539,12.0883118 526.911688,0 512,0 C497.088312,0 485,12.0883118 485,27 L485,27 Z" id="路径"></path>
            <path d="M826,171 C826,185.911689 838.088312,198 853,198 C867.911688,198 880,185.911689 880,171 C880,161.35383 874.85383,152.4404 866.5,147.617314 C858.146171,142.794229 847.853829,142.794229 839.5,147.617314 C831.14617,152.4404 826,161.35383 826,171 Z" id="路径"></path>
            <path d="M970,512 C970,526.911688 982.088312,539 997,539 C1011.91169,539 1024,526.911688 1024,512 C1024,497.088312 1011.91169,485 997,485 C982.088312,485 970,497.088312 970,512 Z" id="路径"></path>
            <path d="M0,512 C0,526.911688 12.0883118,539 27,539 C41.9116882,539 54,526.911688 54,512 C54,497.088312 41.9116882,485 27,485 C12.0883118,485 0,497.088312 0,512 Z" id="路径"></path>
            <path d="M144,171 C144,180.64617 149.14617,189.5596 157.5,194.382686 C165.853829,199.205771 176.146171,199.205771 184.5,194.382686 C192.85383,189.5596 198,180.64617 198,171 C198,156.088311 185.911688,144 171,144 C156.088312,144 144,156.088311 144,171 L144,171 Z" id="路径"></path>
            <path d="M144,853 C144,862.64617 149.14617,871.5596 157.5,876.382686 C165.853829,881.205771 176.146171,881.205771 184.5,876.382686 C192.85383,871.5596 198,862.64617 198,853 C198,838.088311 185.911688,826 171,826 C156.088312,826 144,838.088311 144,853 L144,853 Z" id="路径"></path>
            <path d="M826,853 C826,867.911689 838.088312,880 853,880 C867.911688,880 880,867.911689 880,853 C880,843.35383 874.85383,834.4404 866.5,829.617314 C858.146171,824.794229 847.853829,824.794229 839.5,829.617314 C831.14617,834.4404 826,843.35383 826,853 Z" id="路径"></path>
            <path d="M485,979 C485,993.911688 497.088312,1006 512,1006 C526.911688,1006 539,993.911688 539,979 C539,964.088312 526.911688,952 512,952 C497.088312,952 485,964.088312 485,979 L485,979 Z" id="路径"></path>
        </g>
    </g>
</svg>