<svg class="icon" viewBox="0 0 3089 1024" xmlns="http://www.w3.org/2000/svg" width="603.32" height="200"><defs><style/></defs><path d="M299.8 190.455h454.367v73.678h-36.84c0 124.843 1.022 366.343 0 488.117 0 51.165-39.911 80.841-102.336 80.841h-68.564v-75.725c20.467-1.023 27.63 0 45.027 0 12.28-1.023 23.537-14.326 23.537-24.559V264.133H299.8v-73.678zm1565.724 0h331.565c23.537 0 40.934 21.49 40.934 39.909V464.7h45.027c0 80.841 0 143.263 1.024 224.104 0 30.699-28.654 47.072-47.074 47.072h-54.238v-60.375c-101.311 0-247.65 2.046-338.728 2.046 0-47.072 45.027-73.678 74.704-73.678h264.024V538.38h-240.487c-30.7 0-61.4-28.653-61.4-63.445V296.878h75.727c15.35 0 25.584 13.303 25.584 22.513v132.007c0 6.14 8.187 13.303 14.327 13.303h123.825V264.133h-254.814v-73.678zm-1298.63 117.68V625.36c0 49.119-22.514 85.958-90.055 85.958h-173.97V308.135h264.025zm-179.086 78.794v250.71h66.517c15.35 0 22.514-11.256 22.514-24.559V386.93h-89.031zM.982 833.091V208.874s0-18.42 21.49-18.42h242.534v385.787c0 64.468-60.378 135.077-129.966 135.077V628.43s36.841-14.327 36.841-55.259V264.133H99.223V833.09H.982zM2670.9 190.455h331.565c22.513 0 40.934 21.49 40.934 39.909V464.7h45.027v304.945c0 28.653-21.49 63.445-70.611 63.445h-92.101v-73.678h37.864c14.326 0 22.513-5.117 22.513-16.373v-67.538h-335.658c0-47.072 47.074-71.632 74.704-71.632h260.954V538.38c-108.475-2.047-238.44-2.047-238.44-2.047-31.724 0-61.401-26.606-61.401-61.398V296.879h75.728c15.35 0 25.583 11.256 25.583 22.512v132.007c0 6.14 7.164 13.303 14.327 13.303h123.826V264.133H2670.9v-73.678zm196.483 568.958h-140.199c-61.401-5.117-113.592-14.326-154.526-48.095 35.818-39.91 55.261-85.958 59.354-172.94V253.9c0-8.187-10.233-18.42-19.443-18.42H2487.72v-45.025h-98.241v45.025h-31.724v72.655h31.724v230.244c0 86.98 28.654 132.006 64.47 172.939-42.98 29.675-86.984 48.095-146.338 48.095h-325.425c-91.078 0-179.086-16.373-212.857-56.282 30.7-41.955 49.121-77.771 58.331-166.799V260.04c-1.023-12.28-12.28-23.537-23.537-24.56h-125.872v-45.025h-94.148v45.025h-33.77v72.655h33.77v228.197c8.187 89.028 36.84 117.68 69.588 169.869-50.144 34.792-108.475 51.165-179.086 53.212h-266.071v-56.282h266.07V625.36h-266.07v-56.282h200.576s65.495 0 65.495-70.608V190.455H844.222c-11.257 0-21.49 11.256-21.49 18.42v360.203h265.047v56.282H822.73c0 23.536 0 52.188 1.024 77.771h264.024v56.282H777.704v73.678c232.3 0 519.861 1.023 743.975 0 61.4 0 137.128-31.722 192.39-63.445 68.564 53.212 144.292 63.445 268.117 63.445h300.865c105.404 0 170.899-22.513 236.393-61.398 59.354 35.815 115.639 58.328 207.74 61.398h140.199v-73.678zm-1779.604-262.99H924.043v-77.771h163.736v77.771zm0-154.519H924.043v-77.771h163.736v77.771zm120.755-77.771h163.736v77.771h-163.736v-77.771zm0 154.519h163.736v77.771h-163.736v-77.771zm527.025 119.727c-3.07 50.142-12.28 62.421-24.56 96.19-14.328-32.745-27.631-46.048-32.748-96.19 2.047-66.515 0-159.636 0-230.244h57.308v230.244zm806.399 0c-2.047 46.049-13.304 68.561-26.607 96.19-15.35-26.605-28.654-52.188-28.654-96.19V308.135h55.26v230.244z" fill="#fff"/></svg>