<svg class="icon" viewBox="0 0 2790 1024" xmlns="http://www.w3.org/2000/svg" width="544.922" height="200"><defs><style/></defs><path d="M1080.132 810.458c-67.084 61.198-168.475 92.251-301.254 92.251h-88.472V156.895h88.472c132.78 0 234.17 30.91 301.254 91.965 66.078 60.098 101.008 157.23 101.008 280.918 0 123.402-34.93 220.438-101.008 280.68zm93.208-650.835C1079.08 77.227 939.983 35.456 759.93 35.456H557.243v988.023H759.93c180.053 0 319.197-41.724 413.41-124.071 93.066-81.295 142.158-209.146 142.158-369.63 0-160.866-49.092-288.909-142.158-370.155zM282.306 632.222c0 68.136-4.737 118.569-14.02 146.081-9.09 27.322-23.015 50.098-45.216 67.515-25.695 19.57-56.892 35.886-92.683 44.977-34.307 8.613-76.94 13.11-126.846 13.541H0v119.622h3.54c3.494.095 6.125 0 7.322 0 137.803 0 243.405-29.81 309.292-86.08 66.988-57.275 100.913-144.885 100.913-260.248V33.494H282.306v598.728zm1110.372 220.916c-29.618 0-53.734 23.973-53.734 53.639 0 29.522 24.116 53.59 53.734 53.59s53.734-24.068 53.734-53.59c0-29.666-24.116-53.639-53.734-53.639zm624.232-641.361h-389.727v-55.265h389.726v55.265zm78.95 45.17V110.96h-547.627v146.369h232.687v139.478c0 25.79-4.545 38.614-13.397 46.366-8.948 7.799-22.632 11.914-40.72 12.249v43.494c46.988-1.483 81.391-11.627 103.306-30.623 21.723-18.9 32.728-47.992 32.728-86.893V257.33h233.022v-.384zM1863.172.287h-82.252v34.355h-252.592v45.552h587.484V34.642h-252.64z" fill="#fff"/><path d="M1528.328 497.529h46.557c99.573-86.606 125.602-210.007 125.602-210.007h-89.955c-10.91 87.323-47.753 160.914-82.204 210.007zm415.373-210.007s25.886 123.4 125.459 210.007h46.652c-34.499-49.093-71.294-122.636-82.252-210.007h-89.859zm258.429 210.007h46.557c99.573-86.606 125.507-210.007 125.507-210.007h-89.812c-11.005 87.323-47.8 160.914-82.251 210.007zm415.326-210.007s25.933 123.4 125.506 210.007h46.604c-34.45-49.093-71.294-122.636-82.203-210.007h-89.907z" fill="#fff"/><path d="M2408.645 34.642L2424.77 0h-82.395l-16.173 34.642h-124.215v45.552h102.922l-82.778 177.135h238.334v139.478c0 26.94-4.45 38.614-13.35 46.366-8.996 7.799-22.585 11.914-40.671 12.249v43.494c46.94-1.483 81.342-11.627 103.209-30.623 21.77-18.9 32.824-47.992 32.824-86.893V257.33h226.993v-45.552h-226.993v-97.85h-82.012v97.85h-133.641l60.863-131.584h401.88V34.642h-380.922zm-296.517 918.356c-79.477 0-144.168-64.547-144.168-143.928 0-79.333 64.691-143.88 144.168-143.88 79.524 0 144.215 64.547 144.215 143.88 0 79.38-64.691 143.928-144.215 143.928zm0-358.768c-118.665 0-215.223 96.367-215.223 214.84 0 118.52 96.558 214.888 215.223 214.888 118.712 0 215.222-96.367 215.222-214.888 0-118.473-96.51-214.84-215.222-214.84zm606.671 18.135l-136.177 254.889-136.225-254.89h-70.002v393.555h68.28v-249.96l137.947 248.716 137.9-248.765v250.009h68.375V612.365zM1838.77 916.92c-26.413 23.303-60.194 36.078-95.458 36.078-79.429 0-144.072-64.5-144.072-143.832 0-79.381 64.643-143.833 144.072-143.833 35.264 0 69.093 12.824 95.505 36.174l7.656 6.507 50.097-50.05-8.373-7.655c-39.667-36.078-91.152-55.983-144.885-55.983-118.617 0-215.127 96.367-215.127 214.84 0 118.425 96.51 214.792 215.127 214.792 53.686 0 105.17-19.905 145.028-56.079l8.182-7.608-50.097-50.001-7.656 6.65z" fill="#fff"/></svg>