<svg class="icon" viewBox="0 0 2560 1024" xmlns="http://www.w3.org/2000/svg" width="500" height="200"><defs><style/></defs><path d="M253.867 714.667c0 96-78.934 162.133-164.267 162.133v61.867c119.467 0 224-98.134 224-224V85.333h-59.733v629.334zm1900.8-629.334c-172.8 0-315.734 140.8-315.734 313.6s140.8 313.6 315.734 313.6c172.8 0 313.6-140.8 313.6-313.6 2.133-172.8-140.8-313.6-313.6-313.6zm0 567.467c-140.8 0-253.867-113.067-253.867-253.867s113.067-253.866 253.867-253.866 253.866 113.066 253.866 253.866S2295.467 652.8 2154.667 652.8zM1587.2 145.067c91.733 0 172.8 49.066 217.6 121.6 8.533-21.334 19.2-42.667 29.867-61.867-59.734-72.533-147.2-119.467-247.467-119.467-172.8 0-315.733 140.8-315.733 313.6s140.8 313.6 315.733 313.6c100.267 0 189.867-46.933 247.467-119.466-6.4-10.667-10.667-19.2-17.067-29.867v-2.133c-4.267-2.134-4.267-6.4-6.4-10.667 0-2.133-2.133-2.133-2.133-4.267-2.134-4.266-4.267-8.533-4.267-12.8-14.933-38.4-23.467-81.066-23.467-125.866v-38.4H1587.2v61.866h134.4c4.267 55.467 17.067 106.667 40.533 153.6-44.8 42.667-106.666 68.267-172.8 68.267-140.8 0-253.866-113.067-253.866-253.867-2.134-138.666 110.933-253.866 251.733-253.866zm-599.467 121.6c-83.2 0-155.733 44.8-194.133 110.933-38.4-66.133-110.933-110.933-194.133-110.933-64 0-121.6 27.733-164.267 70.4v-70.4h-61.867v448H435.2v-224c0-89.6 72.533-162.134 162.133-162.134 89.6 0 162.134 72.534 162.134 162.134v224H819.2v-224c0-89.6 72.533-162.134 162.133-162.134 89.6 0 162.134 72.534 162.134 162.134v224h61.866v-224c6.4-123.734-93.866-224-217.6-224z" fill="#fff"/></svg>