<svg width="400" height="400" xmlns="http://www.w3.org/2000/svg" display="block"><g fill-rule="evenodd"><path d="M368.2 44.073c-.44.246-1.65 1.234-2.69 2.194l-1.889 1.746-2.851-.107-2.852-.106-1.659 1.903c-1.666 1.911-3.288 2.697-5.566 2.697-.802 0-1.81.647-3.603 2.312-1.37 1.272-3.12 2.564-3.89 2.871-.77.307-2.21 1.291-3.2 2.188-.99.897-3.767 3.07-6.17 4.83-2.404 1.759-5.464 4.219-6.8 5.466-4.039 3.768-5.932 5.184-11.311 8.464-1.144.698-4.204 2.82-6.8 4.716-9.677 7.069-19.072 11.637-36.919 17.953-2.97 1.051-6.84 2.54-8.6 3.308-1.76.768-4.1 1.689-5.2 2.045-6.753 2.19-19.66 12.494-19.319 15.423.147 1.264.544 1.274 11.265.28 10.676-.99 20.271-.102 27.226 2.52 2.216.836 5.018 1.838 6.228 2.227 1.21.39 3.37 1.289 4.8 1.997 1.43.708 3.59 1.602 4.8 1.986 1.21.384 3.795 1.422 5.744 2.306 5.513 2.5 9.114 2.289 8.345-.489-1.004-3.628-.395-5.307 4.284-11.803 1.426-1.98 3.246-4.77 4.043-6.2 5.569-9.982 20.68-31.792 25.774-37.2 1.348-1.43 3.047-3.442 3.777-4.471.729-1.028 2.025-2.432 2.879-3.118.854-.686 2.172-2.216 2.929-3.399.756-1.182 2.351-2.871 3.543-3.752 1.193-.88 2.746-2.331 3.453-3.223.728-.919 2.354-2.188 3.753-2.929 1.841-.975 2.827-1.837 3.873-3.384.896-1.325 2.087-2.454 3.295-3.12 1.04-.575 2.165-1.436 2.5-1.913 1.788-2.554-.579-5.683-3.192-4.218M165.726 154.72c-3.148 1.123-5.028 2.554-8.113 6.177-3.654 4.291-3.597 4.408 1.815 3.686 6.797-.908 3.782 5.861-5.828 13.084-6.722 5.052-12.391 8.604-23.2 14.533a591.372 591.372 0 0 0-7.4 4.134c-1.76 1.007-6.26 3.474-10 5.483-3.74 2.008-8.51 4.659-10.6 5.891a604.963 604.963 0 0 1-6.4 3.717c-1.43.814-3.509 2.064-4.621 2.778-1.111.715-2.77 1.682-3.686 2.149-.916.468-3.088 1.795-4.827 2.949a337.814 337.814 0 0 1-5.914 3.824c-19.43 12.184-29.536 19.082-45.748 31.23-13.549 10.152-26.605 22.902-25.418 24.822.568.919 8.882-2.519 12.748-5.272.651-.464 2.552-1.591 4.225-2.505A170.235 170.235 0 0 0 28 268.407c1.21-.732 3.1-1.875 4.2-2.538 1.1-.664 3.35-1.946 5-2.849 1.65-.903 3.54-2.018 4.2-2.477 5.539-3.851 52.808-28.143 54.762-28.143.18 0 2.063-.799 4.183-1.775 4.644-2.138 9.294-4.025 16.281-6.608 7.835-2.896 14.125-5.88 20.542-9.744 10.91-6.569 13.47-3.457 6.852 8.327-4.156 7.401-6.31 19.467-6.575 36.823-.214 14.014-.349 14.763-3.07 16.949-2.661 2.138-1.935 5.367 2.78 12.368 4.907 7.284 4.905 8.73-.018 15.169-3.293 4.308-7.788 11.121-10.617 16.091-4.923 8.648-6.035 10.753-8.872 16.8-1.6 3.41-3.684 7.82-4.63 9.8-.947 1.98-1.948 4.32-2.225 5.2-.277.88-1.084 2.77-1.793 4.2-.709 1.43-1.517 3.32-1.796 4.2-.278.88-1.387 3.996-2.464 6.925-2.262 6.153-2.804 9.507-1.786 11.061 2.062 3.147 8.952-1.944 28.646-21.165a3388.86 3388.86 0 0 1 10.95-10.636c9.55-9.219 11.776-12.797 13.463-21.654 1.716-9.003 3.809-9.587 13.641-3.81 4.922 2.892 14.391 6.671 21.799 8.7 3.271.896 7.387 2.06 9.147 2.587 1.76.527 5.45 1.247 8.2 1.599 2.75.351 7.25 1.076 10 1.61 9.901 1.922 22.853 2.722 24.353 1.504 1.265-1.028.827-1.827-2.397-4.373-11.063-8.737-18.378-18.77-16.391-22.483.992-1.852 2.398-1.187 7.287 3.445 5.457 5.171 11.333 10.401 14.575 12.972 6.684 5.3 8.789 6.883 13.507 10.156a1216.47 1216.47 0 0 0 6.6 4.555c.806.547 3.84 2.653 6.742 4.682 2.902 2.028 6.502 4.445 8 5.37 15.245 9.418 17.696 10.59 19.578 9.357 2.017-1.322 1.616-2.802-2.337-8.602l-4.839-7.104c-5.383-7.907-4.578-10.007 3.984-10.393l4.462-.201 6.738 3.103c10.673 4.914 11.938 4.717 10.736-1.673-1.486-7.893.18-12.011 9.004-22.251 2.412-2.8 2.526-3.481.584-3.481-1.61 0-9.317 2.924-13.786 5.23-10.822 5.584-16.023 7.256-24.2 7.781-4.694.301-6.191.696-7.819 2.066-2.474 2.082-6.377-.19-15.255-8.883-10.232-10.018-21.257-19.755-30.916-27.303-11.302-8.833-11.051-8.569-11.328-11.906-.567-6.833 13.601-25.078 34.538-44.478 7.72-7.153 10.564-7.316 13.829-.796 3.718 7.425 6.092 10.916 11.661 17.151 12.327 13.8 52.773 38.833 59.589 36.882 2.823-.809 2.646-4.206-.452-8.629-.863-1.231-2.065-3.11-2.673-4.176-9.353-16.408-21.411-31.542-41.213-51.728-11.611-11.836-11.155-10.843-7.928-17.276 5.532-11.032 23.931-25.55 43.021-33.949 6.329-2.785 7.133-3.07 14.146-5.032l6.8-1.901 9.2-.283c9.822-.301 11.32-.502 10.561-1.418-2.446-2.946-27.623-4.517-45.361-2.829-13.803 1.314-31.134 5.268-48.8 11.134-2.64.877-6.69 2.198-9 2.937-2.31.739-5.482 1.805-7.049 2.371-5.296 1.91-17.745 2.388-23.151.889-6.731-1.866-15.602-6.485-20.322-10.582-3.428-2.975-4.657-2.803-5.66.791-1.227 4.393-1.476 4.752-8.397 12.137-8.256 8.809-19.545 22.703-22.912 28.2-.83 1.355-4.319 6.203-6.153 8.549-2.136 2.732-5.383 3.498-6.647 1.567-1.059-1.618-.825-4.401.868-10.316 1.387-4.847 2.198-6.967 6.046-15.8 7.356-16.885 7.78-24.755 1.693-31.416-4.001-4.377-10.831-6.176-16.19-4.264" fill="#134899"/><path d="M349.306 30.197c-1.152.321-2.952 1.017-4 1.548A82.443 82.443 0 0 1 341 33.718c-1.32.556-6 2.755-10.4 4.889-4.4 2.133-8.852 4.215-9.893 4.627-1.041.412-3.111 1.357-4.6 2.101-1.489.744-3.967 1.761-5.507 2.261-1.54.499-4.24 1.579-6 2.399-1.76.821-4.433 1.794-5.94 2.163-1.508.369-3.813 1.212-5.123 1.874-1.311.661-4.397 1.653-6.86 2.204-2.462.551-6.547 1.702-9.077 2.557-2.597.878-6.493 1.831-8.946 2.187-2.602.377-5.551 1.113-7.35 1.833-1.652.662-4.763 1.638-6.914 2.17-2.15.532-5.323 1.668-7.05 2.524-1.727.856-3.77 1.803-4.54 2.106-1.664.654-9.056 4.925-12.302 7.108-5.417 3.642-9.191 6.052-10.498 6.701a20.138 20.138 0 0 0-2.655 1.65c-1.203.915-3.43 2.188-11.745 6.714-4.85 2.64-10.314 6.024-11.6 7.184-.55.497-1.696 1.319-2.547 1.828-.85.509-2.38 1.622-3.4 2.474-1.019.853-3.203 2.67-4.853 4.039-8.694 7.213-27.828 27.713-29.203 31.288-.17.44-.802 1.331-1.406 1.979-5.251 5.636-3.01 6.762 2.409 1.212 1.76-1.803 4.91-5.034 7-7.181 3.899-4.006 15.001-14.336 16.56-15.409.48-.33 2.647-2.04 4.817-3.8 13.651-11.071 17.44-13.498 31.223-20.001 3.08-1.453 7.31-3.652 9.4-4.886 2.09-1.235 5.51-3.232 7.6-4.44 2.09-1.207 4.7-2.779 5.8-3.494 1.1-.714 2.99-1.79 4.2-2.391 1.21-.602 2.921-1.608 3.801-2.238.881-.629 3.04-1.698 4.798-2.375s3.738-1.561 4.399-1.965c1.829-1.117 4.993-1.925 9.461-2.417a33.763 33.763 0 0 0 7.719-1.775c2.022-.732 5.656-1.709 8.077-2.173 2.42-.463 6.098-1.389 8.173-2.058a155.814 155.814 0 0 1 7.762-2.231c2.195-.559 5.345-1.534 7-2.168a132.383 132.383 0 0 1 6.362-2.204c1.844-.579 4.649-1.643 6.234-2.365 1.586-.723 3.587-1.533 4.448-1.802 1.634-.509 8.594-3.633 14.766-6.629 1.98-.96 4.95-2.385 6.6-3.164 1.65-.78 3.81-1.862 4.8-2.405.99-.543 2.7-1.161 3.8-1.374 6.96-1.344 8.289-1.526 9.442-1.29 3.051.624 2.448 2.196-1.023 2.665-2.491.338-3.944 1.053-6.05 2.978-1.013.926-2.616 1.819-4.236 2.358-1.64.546-3.036 1.327-3.769 2.109-.64.684-2.334 2.011-3.764 2.949-1.43.938-3.05 2.194-3.6 2.79-.55.597-2.08 1.915-3.4 2.929-1.32 1.014-4.495 3.744-7.056 6.067s-6.521 5.467-8.8 6.987c-2.279 1.519-5.044 3.512-6.144 4.429-6.135 5.116-19.729 13.166-27 15.991-1.87.726-4.57 1.857-6 2.513-1.43.655-3.95 1.592-5.6 2.081-1.65.49-3.81 1.294-4.8 1.789-.99.494-3.06 1.308-4.6 1.808-16.446 5.342-33.734 20.337-33.791 29.311-.016 2.603.881 2.643 7.435.335 14.819-5.22 30.636-4.761 45.089 1.307 7.221 3.032 12.684 5.187 16.867 6.652 2.42.847 5.507 2.003 6.86 2.569 1.353.565 4.157 1.369 6.231 1.786 2.075.417 5.378 1.31 7.34 1.983 2.879.988 4.884 1.341 10.369 1.827 3.74.331 9.86.959 13.6 1.395 12.199 1.424 45.332 2.468 46.932 1.479.927-.573.527-2.947-.74-4.39-1.623-1.848-4.002-2.422-7.805-1.88-5.727.815-22.632.209-27.387-.982-3.469-.869-5.593-1.105-12.2-1.359l-8-.308-4.822-1.804c-2.652-.992-6.252-2.12-8-2.505-5.209-1.149-9.778-3.974-9.778-6.044 0-.929 1.343-3.349 3.32-5.98.988-1.315 3.37-5 5.294-8.19 4.599-7.624 6.41-10.29 13.314-19.6 8.83-11.907 9.236-12.429 11.661-15 1.245-1.32 2.758-3.077 3.362-3.906.604-.828 2.063-2.218 3.242-3.089 1.179-.871 2.563-2.331 3.075-3.245.566-1.008 1.741-2.179 2.989-2.978 1.131-.724 2.391-1.796 2.8-2.382 1.997-2.865 2.991-3.738 4.554-4.002 2.033-.343 2.976-1.128 4.311-3.584.682-1.255 1.94-2.636 3.425-3.763 7.14-5.413 3.435-18.428-6.547-23.002-2.377-1.089-13.731-1.39-17.094-.452M371.2 44.4c1.724 1.724.78 4.099-2.308 5.804-1.208.666-2.399 1.795-3.295 3.12-1.046 1.547-2.032 2.409-3.873 3.384-1.399.741-3.025 2.01-3.753 2.929-.707.892-2.26 2.343-3.453 3.223-1.192.881-2.787 2.57-3.543 3.752-.757 1.183-2.075 2.713-2.929 3.399-.854.686-2.15 2.09-2.879 3.118-.73 1.029-2.429 3.041-3.777 4.471-5.094 5.408-20.205 27.218-25.774 37.2-.797 1.43-2.617 4.22-4.043 6.2-4.679 6.496-5.288 8.175-4.284 11.803.769 2.778-2.832 2.989-8.345.489-1.949-.884-4.534-1.922-5.744-2.306-1.21-.384-3.37-1.278-4.8-1.986-1.43-.708-3.59-1.607-4.8-1.997-1.21-.389-4.012-1.391-6.228-2.227-6.955-2.622-16.55-3.51-27.226-2.52-10.721.994-11.118.984-11.265-.28-.341-2.929 12.566-13.233 19.319-15.423 1.1-.356 3.44-1.277 5.2-2.045 1.76-.768 5.63-2.257 8.6-3.308 17.847-6.316 27.242-10.884 36.919-17.953 2.596-1.896 5.656-4.018 6.8-4.716 5.379-3.28 7.272-4.696 11.311-8.464 1.336-1.247 4.396-3.707 6.8-5.466 2.403-1.76 5.18-3.933 6.17-4.83.99-.897 2.43-1.881 3.2-2.188.77-.307 2.52-1.599 3.89-2.871 1.793-1.665 2.801-2.312 3.603-2.312 2.278 0 3.9-.786 5.566-2.697l1.659-1.903 2.852.106 2.851.107 1.889-1.746c3.11-2.873 4.295-3.262 5.69-1.867M269.4 76.621c-1.76.776-5.1 1.934-7.423 2.572-13.923 3.828-19.353 7.149-16.317 9.977 2.888 2.691 17.43 2.093 23.77-.977 11.304-5.474 11.276-16.558-.03-11.572M167.405 149.61c-3.968.698-7.583 2.991-13.24 8.398-2.882 2.755-6.214 5.652-7.403 6.437-4.988 3.295-7.143 4.622-10.362 6.383a2477.655 2477.655 0 0 0-14.6 8.066c-3.954 2.203-8.95 5.181-11.6 6.913-1.1.719-2.63 1.621-3.4 2.005-.77.383-2.66 1.539-4.2 2.568-4.128 2.761-9.35 6.13-11.4 7.357a83.148 83.148 0 0 0-3.678 2.37 217.824 217.824 0 0 1-3.718 2.493c-4.746 3.094-7.582 5.002-10.998 7.4-2.038 1.43-5.272 3.68-7.189 5-9.153 6.305-10.359 7.204-17.52 13.065-4.603 3.768-11.727 11.168-12.522 13.007-.397.919-1.097 1.872-1.555 2.117-.457.245-1.271 1.141-1.807 1.991-1.315 2.083-13.001 13.78-18.213 18.231a235.421 235.421 0 0 0-8.217 7.434c-2.209 2.116-4.414 3.974-4.9 4.129-.853.27-.883.462-.883 5.645v5.366l1.9-.233c1.045-.128 2.612-.412 3.482-.63 2.57-.645 11.591-5.469 26.018-13.913 10.941-6.405 17.093-9.931 23.2-13.298 2.2-1.213 4.9-2.705 6-3.315 6.706-3.719 28.583-14.719 31-15.587.77-.277 3.2-1.317 5.4-2.312 6.481-2.931 14.152-6.13 17.8-7.422 7.557-2.678 12.871-4.928 18.091-7.66 7.981-4.178 8.426-3.737 5.088 5.041-1.87 4.918-2.329 6.94-4.207 18.544-2.265 14.003-2.618 14.338-5.33 5.058-2.431-8.319-3.817-9.471-5.604-4.658-3.601 9.693 1.78 32.182 10.902 45.567 1.874 2.75 2.06 3.225 2.06 5.259 0 2.475.312 1.909-5.424 9.84-3.325 4.598-4.813 6.962-9.903 15.734-2.931 5.052-9.774 19.133-11.842 24.37-.819 2.074-1.901 4.594-2.404 5.6-.504 1.007-1.236 2.82-1.627 4.03-.391 1.21-1.223 3.223-1.848 4.474-1.703 3.406-4.357 12.502-4.634 15.88-.301 3.678.396 5.243 2.867 6.439 5.49 2.657 10.646-.774 31.477-20.945 6.161-5.967 12.777-12.321 14.703-14.122 6.612-6.182 10.921-12.639 12.232-18.326 1.177-5.11 1.429-5.799 2.341-6.396 1.135-.744 2.77-.331 5.417 1.367 10.79 6.924 39.158 14.932 57.445 16.217 1.98.139 7.714.62 12.742 1.069 10.028.896 11.457.788 14.198-1.075 3.092-2.101 4.362-1.618 14.884 5.656 7.042 4.869 12.003 8.171 18.926 12.597 11.227 7.178 16.415 8.542 19.65 5.165 3.077-3.211 1.325-8.524-6.198-18.8-4.926-6.729-.71-8.424 8.888-3.574 12.898 6.518 20.468 4.68 16.727-4.059-3.114-7.273-.978-13.417 7.242-20.825 8.04-7.247 9.851-9.454 9.359-11.411-1.01-4.024-10.809-1.881-26.818 5.864-4.18 2.022-9.85 4.492-12.6 5.487l-5 1.811-9.151.364c-11.119.443-9.518 1.119-19.128-8.09-10.541-10.103-18.597-17.029-33.437-28.748-5.971-4.716-6.084-5.484-1.841-12.55 5.375-8.953 14.53-19.463 27.611-31.698 7.276-6.805 8.383-6.961 11.132-1.569 5.516 10.819 13.734 19.636 28.014 30.056 3.802 2.774 15.688 10.671 17.317 11.506.724.371 2.524 1.454 4 2.408 1.476.953 3.583 2.169 4.683 2.701 1.1.532 2.812 1.445 3.804 2.029.993.584 2.973 1.506 4.4 2.049a98.358 98.358 0 0 1 5.396 2.29c4.984 2.318 10.157 1.772 11.949-1.262 1.759-2.978 1.239-5.644-2.272-11.655a4667.379 4667.379 0 0 1-3.526-6.047c-14.935-25.683-21.484-35.572-32.513-49.093-1.298-1.593-5.003-5.615-8.232-8.94-7.928-8.163-7.959-8.569-1.164-15.447 10.19-10.313 25.118-19.913 38.923-25.03 10.656-3.95 16.304-4.686 31.035-4.045 9.96.434 14.305-.905 17.797-5.482 4.738-6.212 2.249-13.591-3.253-9.647-5.808 4.162-7.611 4.538-13.77 2.871-11.013-2.979-39.217-2.987-53.374-.014-2.64.554-7.23 1.438-10.2 1.965-2.97.526-6.48 1.334-7.8 1.794-1.32.461-4.914 1.469-7.986 2.241-6.116 1.537-18.22 5.476-22.014 7.163-8.162 3.63-22.046 4.742-30.6 2.45-8.748-2.343-15.108-6.726-22.668-15.623-1.106-1.302-1.458-1.476-2.76-1.366-2.533.214-3.109 1.451-3.385 7.275-.281 5.953-.63 6.684-5.866 12.279-8.937 9.551-13.011 14.349-21.716 25.572-4.973 6.412-6.758 7.913-6.305 5.3.504-2.909 2.586-9.046 4.104-12.1.93-1.87 1.825-3.85 1.99-4.4.165-.55 1.002-2.665 1.862-4.701 3.339-7.911 3.742-16.322 1.043-21.77-4.164-8.402-13.042-13.372-21.294-11.919m9.914 5.92c10.602 5.22 11.44 15.277 2.904 34.87-3.848 8.833-4.659 10.953-6.046 15.8-1.693 5.915-1.927 8.698-.868 10.316 1.264 1.931 4.511 1.165 6.647-1.567 1.834-2.346 5.323-7.194 6.153-8.549 3.367-5.497 14.656-19.391 22.912-28.2 6.921-7.385 7.17-7.744 8.397-12.137 1.003-3.594 2.232-3.766 5.66-.791 11.758 10.206 30.478 14.38 43.473 9.693 1.567-.566 4.739-1.632 7.049-2.371 2.31-.739 6.36-2.06 9-2.937 17.666-5.866 34.997-9.82 48.8-11.134 17.738-1.688 42.915-.117 45.361 2.829.759.916-.739 1.117-10.561 1.418l-9.2.283-6.8 1.901c-7.013 1.962-7.817 2.247-14.146 5.032-19.09 8.399-37.489 22.917-43.021 33.949-3.227 6.433-3.683 5.44 7.928 17.276 19.802 20.186 31.86 35.32 41.213 51.728.608 1.066 1.81 2.945 2.673 4.176 8.818 12.589-3.796 10.843-27.14-3.756-24.893-15.568-35.817-25.989-43.658-41.648-3.265-6.52-6.109-6.357-13.829.796-20.937 19.4-35.105 37.645-34.538 44.478.277 3.337.026 3.073 11.328 11.906 9.659 7.548 20.684 17.285 30.916 27.303 8.878 8.693 12.781 10.965 15.255 8.883 1.628-1.37 3.125-1.765 7.819-2.066 8.177-.525 13.378-2.197 24.2-7.781 4.469-2.306 12.176-5.23 13.786-5.23 1.942 0 1.828.681-.584 3.481-8.824 10.24-10.49 14.358-9.004 22.251 1.202 6.39-.063 6.587-10.736 1.673l-6.738-3.103-4.462.201c-8.562.386-9.367 2.486-3.984 10.393l4.839 7.104c3.953 5.8 4.354 7.28 2.337 8.602-1.882 1.233-4.333.061-19.578-9.357-1.498-.925-5.098-3.342-8-5.37a977.74 977.74 0 0 0-6.742-4.682c-11.483-7.782-18.854-13.381-26.307-19.983-2.105-1.865-5.874-5.33-8.375-7.7-4.889-4.632-6.295-5.297-7.287-3.445-1.987 3.713 5.328 13.746 16.391 22.483 3.224 2.546 3.662 3.345 2.397 4.373-1.5 1.218-14.452.418-24.353-1.504a189.31 189.31 0 0 0-10-1.61c-2.75-.352-6.44-1.072-8.2-1.599-1.76-.527-5.876-1.691-9.147-2.587-7.408-2.029-16.877-5.808-21.799-8.7-9.832-5.777-11.925-5.193-13.641 3.81-1.687 8.857-3.913 12.435-13.463 21.654a3388.86 3388.86 0 0 0-10.95 10.636c-19.694 19.221-26.584 24.312-28.646 21.165-1.018-1.554-.476-4.908 1.786-11.061 1.077-2.929 2.186-6.045 2.464-6.925.279-.88 1.087-2.77 1.796-4.2.709-1.43 1.516-3.32 1.793-4.2.277-.88 1.278-3.22 2.225-5.2.946-1.98 3.03-6.39 4.63-9.8 2.837-6.047 3.949-8.152 8.872-16.8 2.829-4.97 7.324-11.783 10.617-16.091 4.923-6.439 4.925-7.885.018-15.169-4.715-7.001-5.441-10.23-2.78-12.368 2.721-2.186 2.856-2.935 3.07-16.949.265-17.356 2.419-29.422 6.575-36.823 6.618-11.784 4.058-14.896-6.852-8.327-6.417 3.864-12.707 6.848-20.542 9.744-6.987 2.583-11.637 4.47-16.281 6.608-2.12.976-4.003 1.775-4.183 1.775-1.954 0-49.223 24.292-54.762 28.143-.66.459-2.55 1.574-4.2 2.477-1.65.903-3.9 2.185-5 2.849-1.1.663-2.99 1.806-4.2 2.538-1.21.732-3.569 2.079-5.241 2.993-1.673.914-3.574 2.041-4.225 2.505-1.766 1.257-10.933 5.695-11.765 5.695-4.022 0 2.449-7.156 18.835-20.827 10.326-8.617 29.805-22.14 51.348-35.648 1.513-.949 4.174-2.67 5.914-3.824 1.739-1.154 3.911-2.481 4.827-2.949.916-.467 2.575-1.434 3.686-2.149A123.777 123.777 0 0 1 96 211.425c1.43-.813 4.31-2.486 6.4-3.717 2.09-1.232 6.86-3.883 10.6-5.891 3.74-2.009 8.24-4.476 10-5.483 1.76-1.006 5.09-2.867 7.4-4.134 10.809-5.929 16.478-9.481 23.2-14.533 9.61-7.223 12.625-13.992 5.828-13.084-5.412.722-5.469.605-1.815-3.686 5.886-6.912 12.762-8.785 19.706-5.367" fill="#88a4cc"/></g></svg>