<svg width="1024" height="1024" viewBox="0 0 1024 1024" xmlns="http://www.w3.org/2000/svg"><title>1024x1024@1x</title><g fill="#FE9249"><path d="M512 141c102.284 0 195.03 41.614 262.208 108.792C841.386 316.97 883 409.716 883 512c0 102.29-41.612 195.035-108.788 262.21C707.034 841.388 614.286 883 512 883c-102.284 0-195.03-41.614-262.208-108.792C182.614 707.03 141 614.284 141 512c0-102.284 41.614-195.03 108.792-262.208C316.97 182.614 409.716 141 512 141z" stroke="#FE9249" stroke-width="30"/><path d="M485 36c0 14.912 12.088 27 27 27s27-12.088 27-27-12.088-27-27-27-27 12.088-27 27zm341 144c0 14.912 12.088 27 27 27s27-12.088 27-27a27 27 0 1 0-54 0zm144 341c0 14.912 12.088 27 27 27s27-12.088 27-27-12.088-27-27-27-27 12.088-27 27zM0 521c0 14.912 12.088 27 27 27s27-12.088 27-27-12.088-27-27-27-27 12.088-27 27zm144-341a27 27 0 1 0 54 0c0-14.912-12.088-27-27-27s-27 12.088-27 27zm0 682a27 27 0 1 0 54 0c0-14.912-12.088-27-27-27s-27 12.088-27 27zm682 0c0 14.912 12.088 27 27 27s27-12.088 27-27a27 27 0 1 0-54 0zM485 988c0 14.912 12.088 27 27 27s27-12.088 27-27-12.088-27-27-27-27 12.088-27 27z"/></g></svg>