<svg width="512pt" height="512pt" viewBox="0 0 512 512" xmlns="http://www.w3.org/2000/svg"><g fill="#a7cff5"><path d="M40.63 16.26c5.36-.01 10.72-.01 16.09-.01.02 7.99.01 15.97.04 23.95 132.89.1 265.78-.12 398.67.1-7.07 1.21-14.29.67-21.43.91-24.99-.89-50 .11-75-.26-6.33-.02-12.66.25-18.99.04-13.67-.48-27.35.31-41.02-.15-62.66-.27-125.32.36-187.98.03-18.32.37-36.66.85-54.97.17-.38-7.9-.27-15.81-.38-23.72-4.77-.01-9.55.01-14.32.03-.34 7.91-.29 15.83-.37 23.74-7.92-.06-15.85-.27-23.78.02-.07 5.02-.12 10.03-.12 15.05 7.88.29 15.78.31 23.66-.15l-.01.83c-8.16-.2-16.33-.06-24.5-.1 0-5.37.02-10.73.01-16.1 8.12-.02 16.24-.02 24.36-.04-.02-8.11 0-16.23.04-24.34zm415.05-.09c5.21.15 10.43.06 15.64.07.03 2.78.23 5.57-.06 8.34-.72 2.47-1.52 4.91-2.19 7.4-.99-3.77-4.71-5.12-7.95-6.4-1.55.81-3.11 1.59-4.67 2.39-.07-3.68-.25-7.37-.69-11.02l-.08-.78z"/><path d="M456.05 31.4c1.83.44 4.45-.01 5.43 2.01 1.92 3.58 2.7 8.12.82 11.87-.91 2.14-3.7 1.86-5.55 2.54-.31 1.67-.68 3.35-.67 5.06 2.77 2.8 7.14 5.37 11.11 3.48 5.07-2.05 9.88-5.02 15.45-5.57-.24-2.18-.19-5.05-2.73-5.9-4.23-1.39-8.8-.52-13.13-1.41 1.28-1.51 2.6-3.01 3.97-4.45.42.39 1.28 1.17 1.7 1.56 7.77.18 15.55-.08 23.32.1-.04 5.26 0 10.53-.01 15.79-8.12.22-16.26-.1-24.38 0-.02 3.7.2 7.41-.1 11.1-.66 2.25-1.41 4.47-2.11 6.7-1.55.33-3.12.67-4.66 1-.26 3.84 1.59 7.23 3.67 10.31 1.06-.52 2.12-1.03 3.19-1.55-.02 3.81.15 7.62-.07 11.42-1.32 1.35-2.7 2.63-4.07 3.92-.01 1.56.05 3.13-.23 4.67-2.2 1.97-5.1 3.04-7.1 5.24-.89 3.28 1.06 6.5 1.05 9.8-.93 1.07-2.01 1.98-3.05 2.93 2.46.95 4.88 1.99 7.28 3.08.43-.3 1.28-.92 1.7-1.22-.02-1.4-.02-2.8-.02-4.2 1.46 2.31 2.99 4.58 4.41 6.91.28 2.91.07 5.84.09 8.76-.51-.04-1.52-.11-2.03-.15-.85-1.27-1.68-2.56-2.52-3.83-1.17.16-2.32.32-3.48.47.28 3-1.67 5.13-4 6.69-1.07-1.13-2.14-2.26-3.2-3.39.14 4.39-.35 8.88.69 13.19 1.33 1.84 3.29 3.09 5.05 4.49 1.69-1.61 3.35-3.27 5.26-4.63 2.61 1.98 2.95 5.73 1.93 8.64-1.38 2.39-4.37 3.8-4.75 6.74-.5 2.37-1 4.74-1.61 7.08 1.87.1 3.74.23 5.62.34-1.69 2.25-3.45 4.44-5.24 6.6 1.39.77 2.81 1.52 4.04 2.57 1 2.71-.61 5.53-1.23 8.17.83-.24 1.67-.48 2.51-.72.28 2.05.56 4.11.83 6.17l2.14 1.47c-.07 34.3.1 68.6-.05 102.9-2.33 1.8-4.3 4.04-5.68 6.65-.67-2.32-.12-5.71-2.55-7.02-2.32-.5-4.67.26-6.95.61-.13 10.54.26 21.08-.36 31.61-.12 14.34-.08 28.68.1 43.02 4.65-.99 6.67-5.54 9.08-9.11-1.79-1.44-3.58-2.87-5.36-4.3 1.76.67 3.53 1.35 5.29 2.03-.07-2.17-.12-4.34-.17-6.51.83.01 1.66.03 2.5.05-2.17 7.13 2.61 13.52 4.09 20.23.16 26.62.07 53.25.04 79.88 8.11.01 16.22.06 24.33.02-.07 5.37.18 10.76-.16 16.13-.66-5.06-.81-10.16-.88-15.25-4 .06-7.99.26-11.95.7.05 2.54.68 5.5-1.08 7.64-1.69 2.16-4.68 1.45-7.06 1.52-.44 1.28-1.03 2.5-1.47 3.79-1-.46-1.99-.9-2.97-1.34-.68-1.57-.85-3.6-2.4-4.59-2.09-1.34-4.46-2.17-6.73-3.13-.72.34-1.43.7-2.13 1.06 1.74 1.7 3.46 3.42 5.2 5.13-2.47 1.54-5.15 2.7-7.9 3.63-.68 8.01-.07 16.04-.05 24.07 5.12 0 10.26.13 15.34.84-5.38.37-10.78.1-16.17.18 0-8.12.05-16.24-.02-24.35-18.62.06-37.23.08-55.84.03.05-2.9 1.02-6.13-.52-8.79-1.47-.47-3.31-.61-4.52.53-1.02 2.07-1.32 4.39-1.82 6.61-.32-.98-.63-1.95-.94-2.92-.6-.14-1.2-.26-1.79-.38-.1-.75-.19-1.49-.28-2.22-1.12.48-2.24.95-3.36 1.44-.49 1.24-.98 2.48-1.47 3.73-3.41-3.89-2-9.19-1.57-13.81 22.32-.08 44.63-.15 66.94.08 2.32-.06 5.8-.08 6.3-3.01.22-3.55-.92-7.05-.87-10.61-.05-14.16.04-28.32-.06-42.48-8.88-.1-17.75.01-26.63-.13-1.35-3.42-.1-6.74 2.07-9.46 1.38.56 2.77 1.12 4.17 1.68-.07-1.56-.15-3.12-.2-4.67 1.69 2.18 3.37 4.36 5.02 6.57.12-1.74.24-3.46.37-5.19 1.02.41 2.03.82 3.06 1.24 1.86-1.58 3.35-3.54 4.24-5.83 2.49-.03 4.98-.1 7.48-.13.62-22.86.12-45.75.23-68.62-.04-17.04.09-34.08-.1-51.11-4.17-.08-8.34-.12-12.51.02 3-1.45 6.17-2.53 9.05-4.22-.39-3.2-2.59-5.69-4.45-8.16 2.43-2.31 5.55-3.55 8.81-4.18.65-7.82-1.25-15.58-.73-23.41.4-6.96.31-13.92.04-20.88-.08-24.76.1-49.52-.2-74.27-6.83-.19-13.66-.31-20.49-.36-1.31-2.19-3.16-4.49-2.77-7.22.43-2.87 1.65-5.53 2.69-8.22-3.68-.08-7.36-.22-11.03-.43 10.48-.91 21.01-.13 31.51-.48.49-12.32-.69-24.66.06-36.98.43-5.97.07-11.96-.36-17.92-6.59-.18-13.19-.34-19.78-.18-22.29.23-44.58-.21-66.86.08.14 12.99-.16 25.97-.14 38.96l-.95.13c.52-13.3.26-26.62.24-39.92 7.33.27 14.67.1 21.99-.53 16.88 1.25 33.84.26 50.76.7 3.43.35 6.68-.82 8.89-3.51-1.59-.09-3.17-.28-4.76-.33 1.66-1.19 3.95-1.91 4.9-3.81.08-2.07-.83-4-1.42-5.94 3.13 2.18 6.61 5.32 10.7 3.72-.42-3.56-.37-7.16.33-10.68-.87-1.49-1.76-2.98-2.63-4.47z"/><path d="M136.28 112.23c48.91-.08 97.81.27 146.72.07 26.66-.34 53.33.19 79.99-.11 9.77.13 19.55-.27 29.31.34-12.74 1.41-25.55-.05-38.31.66-11.43.51-22.87-.43-34.29.09 3.77 5.43 9.21 9.42 14.83 12.77-.96-2.25-2.52-4.15-4.52-5.55 1.44-1.02 2.87-2.05 4.32-3.07 1.98 1.63 5.09 5.65 7.73 2.94.23-2-.11-4.02-.2-6.02 2.34 3.07 4.62 6.2 6.71 9.46 2.44-.82 4.87-1.66 7.29-2.53-1.28-2.57-2.51-5.18-3.6-7.84 2.33 1.7 4.47 3.71 5.82 6.29-.79 2.74-1.03 5.6-.7 8.44-24.12.29-48.25.09-72.37-.14-6.21.07-12.63.46-18.5-1.95 1.34-2.7 3.8-4.37 6.64-5.15.52 1.32 1.04 2.64 1.57 3.96.23-1.63.44-3.26.66-4.89-4.2-1.09-8.31-2.49-12.25-4.29-.22.86-.43 1.72-.63 2.59-1.21.15-2.41.35-3.61.5-1.83 1.83-3.62 3.78-5.9 5.06-1.89.96-4.1.76-6.15.89.23-1.27.48-2.53.74-3.79-2.13 3.3-5.92 4.55-9.29 6.14-3.51 1.75-7.54.83-11.29.91-27.73.12-55.47.37-83.19.25-.41-3.02-2.63-6.68-.68-9.48 3.53-1.61 7.64-.33 11.4-.31.12-1.67.24-3.34.37-5.01-5.9-.51-11.82-.69-17.73-.38-.19 5.08-.31 10.17-.47 15.26-.88-5.33-.52-10.74-.42-16.11zm215.51 82.59c2.8-.85 5.48-2.04 8.14-3.23 2.57.35 5.15.69 7.73 1.01.02 5.02.01 10.03-.01 15.05-5.24.42-10.5.61-15.76.48-.09-4.44-.12-8.87-.1-13.31zm-199.6-2.47c2.22-.08 4.44-.15 6.66-.23.42 4.14 1.14 8.24 2.15 12.27-.46 1.06-.91 2.12-1.37 3.18-2.46.09-4.92.18-7.38.28-.22-5.17-.25-10.34-.06-15.5zm199.84 31.81c5.22-.08 10.45-.03 15.67.1-.06 10.46 0 20.92 0 31.38.07 10.76.79 21.52.23 32.28-5.32-.07-10.63-.19-15.94-.19-.03-.4-.08-1.2-.1-1.6.79-11.37.28-22.76.47-34.14.16-9.28-1.06-18.55-.33-27.83zM105 248.27c5.06-.19 10.12-.33 15.19-.25.16 5.32.15 10.64-.12 15.96-5.12.44-10.28.29-15.42.28-.38-4.36-.66-8.74-.44-13.11.25-.97.51-1.93.79-2.88zm326.09 7.84c1.02-1.82 2.18-3.56 3.31-5.31.89 2.12 1.65 4.34 2.91 6.28 2.95-.41 5.9-.9 8.89-.56-1.14 1.27-2 2.91-3.51 3.78-1.31.02-2.6-.18-3.88-.32-.29 1.33-.52 2.69-.79 4.04-2.21-.05-4.4-.2-6.6-.35-.11-2.52-.25-5.04-.33-7.56zm-185.52 21.86c6.05-1.07 12.29-.7 18.25-2.26.03 1.44.07 2.89.1 4.34-6.16.18-12.67.88-18.35-2.08zm-93.39 25.35c5.16.03 10.32.01 15.48.01-.07 5.19.06 10.37.13 15.56-5.33-.21-10.67-.25-15.99.14-.02-5.24.27-10.47.38-15.71zm199.96-.03c5.17.03 10.34 0 15.51.03-.12 5.18-.09 10.36.04 15.54-5.19.05-10.38-.04-15.57-.13-.3-5.14-.3-10.3.02-15.44zm-215.81 80.78c10.7.52 21.37-1.46 32.07-.48 7.84.85 15.73.74 23.6.37 10.66-.54 21.34-.17 32.01-.15 5.79.1 11.6-.31 17.38.32-2.23 2.18-4.27 4.55-6.31 6.92 1.76-.14 3.53-.29 5.3-.42-.68 1.82-1.36 3.64-2.05 5.47 2.77.66 5.48 1.53 8.16 2.51-7.13.96-14.33.43-21.49.6-18 .35-36.01-.23-54.01.16-11.52.87-23.06-.25-34.59.27-.02-5.19-.12-10.38-.07-15.57zm175.68-.19c16.66-.26 33.33-.4 49.99-.33-.34 1.72-.67 3.46-1 5.19-1.98-.89-3.95-1.76-5.93-2.61.86 4.08 2.16 8.08 4.19 11.73 3.21-3.06 6.62-5.91 10.31-8.37.82 3.18 1.13 6.47 1.04 9.76-11.18 1.79-22.42-.44-33.64.1-20.59.13-41.18-.36-61.77-.25l-1.59-3.93c-.95 1.31-1.88 2.63-2.8 3.96-3.59.14-7.18.15-10.77.06-.62-1.03-1.24-2.05-1.86-3.06-1.2.76-2.1 3.01-3.62 2.67-5.34-3.73-7.68-10-11.79-14.81 8.11-.27 16.26-.43 24.36.3-.59 1.69-1.17 3.38-1.78 5.06.44.59.88 1.19 1.32 1.79 1.46-2.53 2.8-5.64 5.85-6.56 7.39-1.44 14.94-.01 22.4-.68 5.68-.46 11.39-.15 17.09-.02zm-207.78-.11c1.35-.02 2.7-.02 4.05-.01 2.39 5.68 7.98 8.92 10.98 14.2.63-4.74 1.01-9.51 1.09-14.28.33 5.3.28 10.61.24 15.92-5.31-.09-10.64.41-15.92-.28-.4-5.17-.08-10.37-.44-15.55zm-63.54 9.67c1.84.73 5.22-.16 5.67 2.39 1.11 2.25-1.46 3.6-2.74 5.02-1-.98-1.98-1.96-2.97-2.94.03-1.49.04-2.98.04-4.47zm15.7 24.82c-.35-6.21-.64-12.44.03-18.64.71 18.52-.32 37.07.38 55.6 31.8.25 63.61.02 95.41.05.31-13.28.17-26.56.15-39.84 5.2.03 10.41-.01 15.61-.06.24 4.38.29 8.77.24 13.17-1.92-.6-3.83-1.23-5.72-1.89.24 2.49.42 5 .49 7.51.52.44 1.04.86 1.57 1.3-.29 1.23-.58 2.46-.86 3.7 1.48-.03 2.97-.03 4.46-.05-.01 5.51.08 11.01.26 16.51 8.19-.33 16.39-.34 24.58-.14 8.34.22 17.47-1.51 24.83 3.47-.6-1.08-1.2-2.16-1.78-3.24 10.59-.36 21.19-.23 31.79-.17.79-8.05.42-16.14.39-24.21 5.18-.01 10.37.07 15.53.67.11 7.86-.66 15.74.49 23.57 7.51-.15 15.04-.09 22.56.03 2.18 2.55 4.31 5.14 6.4 7.77-1.97-.14-3.93-.3-5.89-.44-.29 3.29-1.93 6.17-4.23 8.49-45.48-.1-90.97-.06-136.45-.1-.78-2.43-2.02-4.93-1.56-7.54.74-2.64 2.52-4.79 4-7.03-.59-.23-1.78-.67-2.37-.89-.03.57-.08 1.72-.11 2.29-8.13-3.46-17.04-1.46-25.56-2.2-8.54-.64-17.08-.13-25.63.04 1.01 1.84 2.92 3.91 1.86 6.14-2.33 2.8-5.35 4.9-8.09 7.27-.8-1.26-1.51-2.56-2.22-3.86 2.85-2.44 4.93-5.61 6.16-9.15-12.27-.18-24.54-.11-36.8-.68.24-5.25-.09-10.53-1.35-15.64-1.92.7-3.84 1.41-5.75 2.12.75 1.3 1.6 2.54 2.36 3.84-1.45.2-2.89.44-4.34.64.54 1.72 1.09 3.45 1.63 5.18-1.62-.73-3.24-1.45-4.85-2.16-.2-2.34-.42-4.67-.63-7.01l4.06-.21c.52-.83 1.03-1.66 1.55-2.48-1.62-1.34-3.48-2.5-4.66-4.27-1.07-2.57-.58-5.44-.61-8.14 2.45 1.84 4.62 4.29 7.61 5.23 1.77.61 3.37-.94 4.01-2.45 1.39-2.82-2.28-4.36-3.76-6.19-.4-2.63-.7-5.27-.96-7.91 1.92.67 3.84 1.34 5.77 2m94.26 41.86c-.77 2.42-1.55 4.84-2.34 7.25 2.42.91 4.84 1.83 7.26 2.75a220.43 220.43 0 0 0-4.92-10z"/><path d="M40.68 405.17c1.19-1.14 2.37-2.28 3.55-3.41.54.03 1.63.07 2.17.1.4 5.93 1.36 11.81 1.93 17.73-2.48-2.56-4.93-5.14-7.58-7.52-.03-2.3-.04-4.61-.07-6.9zM352 415.36c5.23.01 10.46-.02 15.69-.02.1 13.37.22 26.76-.24 40.13-.27-3.79-.37-7.59-.36-11.39-1.37 2.23-2.77 4.44-4.22 6.61-.7-.79-1.4-1.58-2.1-2.36l-2.97-.12c.96-1.7 1.93-3.4 2.9-5.08-2.6-1.05-5.24-2.04-7.62-3.51.43-2.04 1.98-3.53 3.22-5.1-.79-1.27-1.58-2.52-2.37-3.77 1.08-.15 2.16-.3 3.25-.44-1.46-4.3-3.35-8.44-5.18-12.59v-2.36zm-.13 35.49c.39.93.81 1.86 1.24 2.8 2.16-.55 4.38-1.03 6.62-.68-.82 2.33-3.23 3.34-5.13 4.62.82.81 1.63 1.63 2.46 2.45-.5.9-1 1.8-1.49 2.71-2.58-1.22-5.17-2.41-7.79-3.52-.24-1.22-.47-2.45-.69-3.66 1.55-.01 3.1-.01 4.66.01.04-1.58.1-3.16.12-4.73zM49.6 454.54c2.72 2.26 5.73 4.22 9.24 4.95-2.62 2.78-6 4.68-9.82 5.18-.67-.76-1.34-1.5-2-2.25 2.38-2.01 3.47-4.83 2.58-7.88zm243.16 1.11c4.66-.04 9.32-.2 13.99-.21-.11 2.54-.2 5.09-.29 7.64-4.7-2.21-9.29-4.68-13.7-7.43zm-269.8 11.81c1.05-2.05 2.88-3.55 4.45-5.17.35 3.03.35 6.08.11 9.12-1.02-.01-3.08-.01-4.11-.01-.22-1.31-.4-2.62-.45-3.94z"/></g><g fill="#ddedfb"><path d="M41.34 17.35c4.77-.02 9.55-.04 14.32-.03.11 7.91 0 15.82.38 23.72 18.31.68 36.65.2 54.97-.17 62.66.33 125.32-.3 187.98-.03 13.67.46 27.35-.33 41.02.15 6.33.21 12.66-.06 18.99-.04 25 .37 50.01-.63 75 .26 7.14-.24 14.36.3 21.43-.91.26-7.78-.21-15.58.33-23.35.44 3.65.62 7.34.69 11.02 1.56-.8 3.12-1.58 4.67-2.39 3.24 1.28 6.96 2.63 7.95 6.4.67-2.49 1.47-4.93 2.19-7.4.2 4.59.08 9.17.14 13.76l-.65.69c-1.37 1.44-2.69 2.94-3.97 4.45 4.33.89 8.9.02 13.13 1.41 2.54.85 2.49 3.72 2.73 5.9-5.57.55-10.38 3.52-15.45 5.57-3.97 1.89-8.34-.68-11.11-3.48-.01-1.71.36-3.39.67-5.06 1.85-.68 4.64-.4 5.55-2.54 1.88-3.75 1.1-8.29-.82-11.87-.98-2.02-3.6-1.57-5.43-2.01.87 1.49 1.76 2.98 2.63 4.47-.7 3.52-.75 7.12-.33 10.68-4.09 1.6-7.57-1.54-10.7-3.72.59 1.94 1.5 3.87 1.42 5.94-.95 1.9-3.24 2.62-4.9 3.81 1.59.05 3.17.24 4.76.33-2.21 2.69-5.46 3.86-8.89 3.51-16.92-.44-33.88.55-50.76-.7-7.32.63-14.66.8-21.99.53.02 13.3.28 26.62-.24 39.92-5.09.48-10.22.3-15.32.16-.15-13.14-.17-26.28-.07-39.42-8.88-.47-17.77-.2-26.66-.2-20.27-.07-40.54-.01-60.81.12 0 7.85.09 15.7-.04 23.55-5.41.21-10.83.19-16.23-.07-.15-7.79-.05-15.58-.1-23.38-12.6-.05-25.2-.2-37.8-.17-13.9.37-27.81-.46-41.69.27-.05 13.2.36 26.41-.22 39.6-5.27-.07-10.54-.07-15.81.03-.51-13.4.11-26.8-.35-40.19-31.86.16-63.72.16-95.57-.08.15 18.51.34 37.03.11 55.55 10.72.64 21.47.1 32.2.33-.04 5.31-.08 10.61-.01 15.92-10.67.56-21.34.05-32.01.33-.76 10.88.39 21.79-.67 32.66.96 28.89.51 57.83.33 86.73 10.61.36 21.26-.21 31.84.62.45 5.08.33 10.18.12 15.27-10.51.04-21.01.46-31.51.36-.48 39.78-.02 79.56-.2 119.34 10.53.06 21.07.22 31.6-.08.36 5.35.45 10.71.27 16.07-10.67.21-21.35-.14-32.03.13-.67 6.2-.38 12.43-.03 18.64-1.93-.66-3.85-1.33-5.77-2 .26 2.64.56 5.28.96 7.91 1.48 1.83 5.15 3.37 3.76 6.19-.64 1.51-2.24 3.06-4.01 2.45-2.99-.94-5.16-3.39-7.61-5.23.03 2.7-.46 5.57.61 8.14 1.18 1.77 3.04 2.93 4.66 4.27-.52.82-1.03 1.65-1.55 2.48l-4.06.21c.21 2.34.43 4.67.63 7.01 1.61.71 3.23 1.43 4.85 2.16-.54-1.73-1.09-3.46-1.63-5.18 1.45-.2 2.89-.44 4.34-.64-.76-1.3-1.61-2.54-2.36-3.84 1.91-.71 3.83-1.42 5.75-2.12 1.26 5.11 1.59 10.39 1.35 15.64 12.26.57 24.53.5 36.8.68-1.23 3.54-3.31 6.71-6.16 9.15.71 1.3 1.42 2.6 2.22 3.86 2.74-2.37 5.76-4.47 8.09-7.27 1.06-2.23-.85-4.3-1.86-6.14 8.55-.17 17.09-.68 25.63-.04 8.52.74 17.43-1.26 25.56 2.2.03-.57.08-1.72.11-2.29.59.22 1.78.66 2.37.89-1.48 2.24-3.26 4.39-4 7.03-.46 2.61.78 5.11 1.56 7.54-30.01.04-60.02.13-90.04 0 0 8.1.05 16.19-.04 24.29-5.31.03-10.63.04-15.95 0-.03-8.08.05-16.16.01-24.23-4.36.03-8.72.02-13.09.03.24-3.04.24-6.09-.11-9.12-1.57 1.62-3.4 3.12-4.45 5.17.05 1.32.23 2.63.45 3.94-2.35-.03-4.71 0-7.07-.05.09-5.34.05-10.68.03-16.02 8.11.12 16.21 0 24.32-.03-.02-14.41-.16-28.82.06-43.23 2.65 2.38 5.1 4.96 7.58 7.52-.57-5.92-1.53-11.8-1.93-17.73-.54-.03-1.63-.07-2.17-.1-1.18 1.13-2.36 2.27-3.55 3.41-.04-2.43-.06-4.84-.03-7.26.99.98 1.97 1.96 2.97 2.94 1.28-1.42 3.85-2.77 2.74-5.02-.45-2.55-3.83-1.66-5.67-2.39.01-112.2-.22-224.4.03-336.6l.01-.83c-7.88.46-15.78.44-23.66.15 0-5.02.05-10.03.12-15.05 7.93-.29 15.86-.08 23.78-.02.08-7.91.03-15.83.37-23.74m8.26 437.19c.89 3.05-.2 5.87-2.58 7.88.66.75 1.33 1.49 2 2.25 3.82-.5 7.2-2.4 9.82-5.18-3.51-.73-6.52-2.69-9.24-4.95m-29.87 5.16c2.87-.36 5.57-1.36 8.29-2.3.37 2.05.64 4.12 1.06 6.17 1.49-1.38 2.99-2.73 4.5-4.07-2.99-1.4-5.93-3.56-9.41-3.25-2.13-.05-3.12 2.15-4.44 3.45zM469.17 74.28c.7-2.23 1.45-4.45 2.11-6.7.2 5.49.1 10.98.09 16.46-1.07.52-2.13 1.03-3.19 1.55-2.08-3.08-3.93-6.47-3.67-10.31 1.54-.33 3.11-.67 4.66-1zm-1.94 25.1c1.37-1.29 2.75-2.57 4.07-3.92.13 10.38.19 20.76-.03 31.13-1.42-2.33-2.95-4.6-4.41-6.91 0 1.4 0 2.8.02 4.2-.42.3-1.27.92-1.7 1.22-2.4-1.09-4.82-2.13-7.28-3.08 1.04-.95 2.12-1.86 3.05-2.93.01-3.3-1.94-6.52-1.05-9.8 2-2.2 4.9-3.27 7.1-5.24.28-1.54.22-3.11.23-4.67z"/><path d="M104.29 112.28c5.44 0 10.88.08 16.32.05-.16 5.14-.05 10.29-.05 15.44-5.38.58-10.81.84-16.2.34.02-5.28-.02-10.55-.07-15.83zm288.01.25c3.91-.5 7.94-.03 11.28 2.21l-.2-1.89c1.26-.07 2.53-.13 3.8-.19.26 5.19.31 10.39.14 15.58-16.65.46-33.31-1.14-49.94-.07-.33-2.84-.09-5.7.7-8.44-1.35-2.58-3.49-4.59-5.82-6.29 1.09 2.66 2.32 5.27 3.6 7.84-2.42.87-4.85 1.71-7.29 2.53-2.09-3.26-4.37-6.39-6.71-9.46.09 2 .43 4.02.2 6.02-2.64 2.71-5.75-1.31-7.73-2.94-1.45 1.02-2.88 2.05-4.32 3.07 2 1.4 3.56 3.3 4.52 5.55-5.62-3.35-11.06-7.34-14.83-12.77 11.42-.52 22.86.42 34.29-.09 12.76-.71 25.57.75 38.31-.66zm-255.13.55c5.91-.31 11.83-.13 17.73.38-.13 1.67-.25 3.34-.37 5.01-3.76-.02-7.87-1.3-11.4.31-1.95 2.8.27 6.46.68 9.48-2.38.03-4.75.05-7.11.08.16-5.09.28-10.18.47-15.26zm286.27 15.05c-.03-5.19-.03-10.38.13-15.57 3.67.21 7.35.35 11.03.43-1.04 2.69-2.26 5.35-2.69 8.22-.39 2.73 1.46 5.03 2.77 7.22-3.75-.05-7.5-.13-11.24-.3zm39.89 3.71c1.16-.15 2.31-.31 3.48-.47.84 1.27 1.67 2.56 2.52 3.83.51.04 1.52.11 2.03.15 0 19.97.06 39.93.01 59.9l-2.14-1.47a1149 1149 0 0 0-.83-6.17c-.84.24-1.68.48-2.51.72.62-2.64 2.23-5.46 1.23-8.17-1.23-1.05-2.65-1.8-4.04-2.57 1.79-2.16 3.55-4.35 5.24-6.6-1.88-.11-3.75-.24-5.62-.34.61-2.34 1.11-4.71 1.61-7.08.38-2.94 3.37-4.35 4.75-6.74 1.02-2.91.68-6.66-1.93-8.64-1.91 1.36-3.57 3.02-5.26 4.63-1.76-1.4-3.72-2.65-5.05-4.49-1.04-4.31-.55-8.8-.69-13.19 1.06 1.13 2.13 2.26 3.2 3.39 2.33-1.56 4.28-3.69 4-6.69zM245.7 149.37c12.06-1.03 24.18-.84 36.28-.79 21.04-.11 42.02 2.25 63.06 1.61 4.42-.17 9.52.7 12.23 4.58 1.24 3.49.57 7.35 1.42 10.95 1.94 8.46 2.59 17.27 1.24 25.87-2.66 1.19-5.34 2.38-8.14 3.23-12.76 2.59-25.86 2.01-38.8 1.87-6.74-.08-13.49-.05-20.2-.6-16.26-1.27-32.51.71-48.77.62-16.03.65-32.01 2.3-48.04 3.09-1.99.52-5.24-.3-6.11 2.07-.64 2.32-.14 4.76.02 7.11 1.02 8.19 1.35 16.47 2.91 24.6 16.75-.67 33.47-1.67 50.17-3.13 19.32-1.12 38.64-3.14 58.03-2.6 4.53.2 9.16-.37 13.61.68 2.89 1.44 5.14 3.87 7.62 5.9-3.47.93-7 1.61-10.52 2.3 2.95.39 5.9.75 8.83 1.29-2.5 1.02-5.07 1.87-7.65 2.67 3.54 1.35 7.13 2.59 10.81 3.51-.89.7-1.78 1.41-2.64 2.14 2.03.38 4.07.77 6.1 1.18-2.26.59-4.53 1.16-6.76 1.84-1.95 1.55-4.16 2.73-6.39 3.82 3.49.21 6.99.48 10.43 1.15-3.98 1.97-8.43 2.36-12.76 2.93 3.04.42 6.09.79 9.14 1.15-.09 1.02-.17 2.05-.24 3.07-4.59.95-8.99 2.72-12.59 5.77-2.97.93-5.84 2.21-8.85 3.04-11.51 3.35-24.05 1.09-35.32 5.42-5.96 1.56-12.2 1.19-18.25 2.26-18.5 2.12-37.16 2.58-55.7 4.35-2.06 18.51-.21 37.11-.1 55.67 0 8.93.53 18.05-1.79 26.76-3.84-5.07-5.25-11.36-7.49-17.2-2.46-6.46-4.76-12.99-7.8-19.21-1.58-3.2-2.19-6.77-2.08-10.31.24-11.56.01-23.12.4-34.67-.73-.04-2.21-.13-2.94-.17-2.63-.38-6.06-.02-7.73-2.54-2.39-3.81-2.61-8.47-3.25-12.8-1.03-10.47-5.33-20.4-5.21-31.02 7.76-2.25 15.98-.05 23.71-2.11 1.73-4.21 1.95-8.84 2.84-13.26 1.4-6.39 1.04-13.1-1.56-19.14-5.32.46-10.61 1.21-15.87 2.07a86.302 86.302 0 0 1-2.15-12.27c-.65-11.68-5.97-22.85-4.53-34.66 8.49-1.5 17.05-2.54 25.61-3.53 21.92-1.48 43.83-3.21 65.77-4.56zm210.44 149.02c2.28-.35 4.63-1.11 6.95-.61 2.43 1.31 1.88 4.7 2.55 7.02 1.38-2.61 3.35-4.85 5.68-6.65.1 25.75.12 51.51-.01 77.26-1.48-6.71-6.26-13.1-4.09-20.23-.84-.02-1.67-.04-2.5-.05.05 2.17.1 4.34.17 6.51-1.76-.68-3.53-1.36-5.29-2.03 1.78 1.43 3.57 2.86 5.36 4.3-2.41 3.57-4.43 8.12-9.08 9.11-.18-14.34-.22-28.68-.1-43.02.62-10.53.23-21.07.36-31.61zm-347.86 85.37c4.02-.15 8.05-.14 12.07-.08-.08 4.77-.46 9.54-1.09 14.28-3-5.28-8.59-8.52-10.98-14.2zm133.11.37c.35-.04 1.03-.1 1.38-.14 4.11 4.81 6.45 11.08 11.79 14.81-2.67.37-5.5.95-8.07-.19-2.68-.98-5.39-1.85-8.16-2.51.69-1.83 1.37-3.65 2.05-5.47-1.77.13-3.54.28-5.3.42 2.04-2.37 4.08-4.74 6.31-6.92zm120.61-.58c1.94.19 3.88.51 5.84.59 13.16-.79 26.35-.24 39.53-.42.17 5.22.15 10.45 0 15.68-12.25.25-24.51-.29-36.76-.15.09-3.29-.22-6.58-1.04-9.76-3.69 2.46-7.1 5.31-10.31 8.37-2.03-3.65-3.33-7.65-4.19-11.73 1.98.85 3.95 1.72 5.93 2.61.33-1.73.66-3.47 1-5.19zm61.67.19c7.96-.09 15.92-.13 23.88.01-.89 2.29-2.38 4.25-4.24 5.83-1.03-.42-2.04-.83-3.06-1.24-.13 1.73-.25 3.45-.37 5.19-1.65-2.21-3.33-4.39-5.02-6.57.05 1.55.13 3.11.2 4.67-1.4-.56-2.79-1.12-4.17-1.68-2.17 2.72-3.42 6.04-2.07 9.46l-5.13-.09c-.18-5.19-.17-10.39-.02-15.58zM352 417.72c1.83 4.15 3.72 8.29 5.18 12.59-1.09.14-2.17.29-3.25.44.79 1.25 1.58 2.5 2.37 3.77-1.24 1.57-2.79 3.06-3.22 5.1 2.38 1.47 5.02 2.46 7.62 3.51a613.2 613.2 0 0 0-2.9 5.08l2.97.12c.7.78 1.4 1.57 2.1 2.36 1.45-2.17 2.85-4.38 4.22-6.61-.01 3.8.09 7.6.36 11.39 5.23.06 10.46.1 15.69.09-.43 4.62-1.84 9.92 1.57 13.81.49-1.25.98-2.49 1.47-3.73 1.12-.49 2.24-.96 3.36-1.44.09.73.18 1.47.28 2.22.59.12 1.19.24 1.79.38.31.97.62 1.94.94 2.92.5-2.22.8-4.54 1.82-6.61 1.21-1.14 3.05-1 4.52-.53 1.54 2.66.57 5.89.52 8.79-38.78.01-77.56.02-116.33.05 2.3-2.32 3.94-5.2 4.23-8.49 1.96.14 3.92.3 5.89.44a280.73 280.73 0 0 0-6.4-7.77c1.98.02 3.97.03 5.96.05 4.41 2.75 9 5.22 13.7 7.43.09-2.55.18-5.1.29-7.64 13.44-.14 26.89.17 40.34.13.22 1.21.45 2.44.69 3.66 2.62 1.11 5.21 2.3 7.79 3.52.49-.91.99-1.81 1.49-2.71-.83-.82-1.64-1.64-2.46-2.45 1.9-1.28 4.31-2.29 5.13-4.62-2.24-.35-4.46.13-6.62.68-.43-.94-.85-1.87-1.24-2.8-.13-11.04-.24-22.09.13-33.13zm130.69 39.17c3.96-.44 7.95-.64 11.95-.7.07 5.09.22 10.19.88 15.25-8.05-.07-16.09.01-24.13-.05.04 8.04-.06 16.08.05 24.12-5.08-.71-10.22-.84-15.34-.84-.02-8.03-.63-16.06.05-24.07 2.75-.93 5.43-2.09 7.9-3.63-1.74-1.71-3.46-3.43-5.2-5.13.7-.36 1.41-.72 2.13-1.06 2.27.96 4.64 1.79 6.73 3.13 1.55.99 1.72 3.02 2.4 4.59.98.44 1.97.88 2.97 1.34.44-1.29 1.03-2.51 1.47-3.79 2.38-.07 5.37.64 7.06-1.52 1.76-2.14 1.13-5.1 1.08-7.64zm-332.04 3.23c1.73 3.29 3.36 6.63 4.92 10-2.42-.92-4.84-1.84-7.26-2.75.79-2.41 1.57-4.83 2.34-7.25z"/></g><path d="M56.38 56.39c31.85.24 63.71.24 95.57.08.46 13.39-.16 26.79.35 40.19 5.27-.1 10.54-.1 15.81-.03.58-13.19.17-26.4.22-39.6 13.88-.73 27.79.1 41.69-.27 12.6-.03 25.2.12 37.8.17.05 7.8-.05 15.59.1 23.38 5.4.26 10.82.28 16.23.07.13-7.85.04-15.7.04-23.55 20.27-.13 40.54-.19 60.81-.12 8.89 0 17.78-.27 26.66.2-.1 13.14-.08 26.28.07 39.42 5.1.14 10.23.32 15.32-.16l.95-.13c-.02-12.99.28-25.97.14-38.96 22.28-.29 44.57.15 66.86-.08 6.59-.16 13.19 0 19.78.18.43 5.96.79 11.95.36 17.92-.75 12.32.43 24.66-.06 36.98-10.5.35-21.03-.43-31.51.48-.16 5.19-.16 10.38-.13 15.57 3.74.17 7.49.25 11.24.3 6.83.05 13.66.17 20.49.36.3 24.75.12 49.51.2 74.27.27 6.96.36 13.92-.04 20.88-.52 7.83 1.38 15.59.73 23.41-3.26.63-6.38 1.87-8.81 4.18 1.86 2.47 4.06 4.96 4.45 8.16-2.88 1.69-6.05 2.77-9.05 4.22-1.55.05-3.09.11-4.63.11.27-1.35.5-2.71.79-4.04 1.28.14 2.57.34 3.88.32 1.51-.87 2.37-2.51 3.51-3.78-2.99-.34-5.94.15-8.89.56-1.26-1.94-2.02-4.16-2.91-6.28-1.13 1.75-2.29 3.49-3.31 5.31-.14-2.43-.32-4.86-.49-7.3l-1.05 4.95c-13.84.66-27.7.07-41.55.26-6.77.19-13.89-1.27-20.3 1.62 0-10.46-.06-20.92 0-31.38-5.22-.13-10.45-.18-15.67-.1-.73 9.28.49 18.55.33 27.83-.19 11.38.32 22.77-.47 34.14-1.24-8.93-.56-17.95-.98-26.93l-.95-.03c-.1 3.2-.19 6.4-.27 9.6-10.57.15-21.14-.1-31.71.16-3.42.13-6.73-.75-9.99-1.68 3.6-3.05 8-4.82 12.59-5.77.07-1.02.15-2.05.24-3.07-3.05-.36-6.1-.73-9.14-1.15 4.33-.57 8.78-.96 12.76-2.93-3.44-.67-6.94-.94-10.43-1.15 2.23-1.09 4.44-2.27 6.39-3.82 2.23-.68 4.5-1.25 6.76-1.84-2.03-.41-4.07-.8-6.1-1.18.86-.73 1.75-1.44 2.64-2.14-3.68-.92-7.27-2.16-10.81-3.51 2.58-.8 5.15-1.65 7.65-2.67-2.93-.54-5.88-.9-8.83-1.29 3.52-.69 7.05-1.37 10.52-2.3-2.48-2.03-4.73-4.46-7.62-5.9-4.45-1.05-9.08-.48-13.61-.68-19.39-.54-38.71 1.48-58.03 2.6-16.7 1.46-33.42 2.46-50.17 3.13-1.56-8.13-1.89-16.41-2.91-24.6-.16-2.35-.66-4.79-.02-7.11.87-2.37 4.12-1.55 6.11-2.07 16.03-.79 32.01-2.44 48.04-3.09 16.26.09 32.51-1.89 48.77-.62 6.71.55 13.46.52 20.2.6 12.94.14 26.04.72 38.8-1.87-.02 4.44.01 8.87.1 13.31 5.26.13 10.52-.06 15.76-.48.02-5.02.03-10.03.01-15.05-2.58-.32-5.16-.66-7.73-1.01 1.35-8.6.7-17.41-1.24-25.87-.85-3.6-.18-7.46-1.42-10.95-2.71-3.88-7.81-4.75-12.23-4.58-21.04.64-42.02-1.72-63.06-1.61-12.1-.05-24.22-.24-36.28.79-21.94 1.35-43.85 3.08-65.77 4.56-8.56.99-17.12 2.03-25.61 3.53-1.44 11.81 3.88 22.98 4.53 34.66-2.22.08-4.44.15-6.66.23-.19 5.16-.16 10.33.06 15.5 2.46-.1 4.92-.19 7.38-.28.46-1.06.91-2.12 1.37-3.18 5.26-.86 10.55-1.61 15.87-2.07 2.6 6.04 2.96 12.75 1.56 19.14-.89 4.42-1.11 9.05-2.84 13.26-7.73 2.06-15.95-.14-23.71 2.11-.12 10.62 4.18 20.55 5.21 31.02.64 4.33.86 8.99 3.25 12.8 1.67 2.52 5.1 2.16 7.73 2.54l-.03 4.88c-5.39.36-10.8.39-16.19.1-.43-12.68-.12-25.36-.16-38.04-10.23-.71-20.64 1.25-30.7-1.29.27 5 .42 10.02.04 15.02l-.96.12c.27-5.32.28-10.64.12-15.96-5.07-.08-10.13.06-15.19.25-.28.95-.54 1.91-.79 2.88.01-.57.04-1.71.06-2.28-5.29 1.73-10.86 1.42-16.1-.34-10.58-.83-21.23-.26-31.84-.62.18-28.9.63-57.84-.33-86.73 1.06-10.87-.09-21.78.67-32.66 10.67-.28 21.34.23 32.01-.33-.07-5.31-.03-10.61.01-15.92-10.73-.23-21.48.31-32.2-.33.23-18.52.04-37.04-.11-55.55m47.91 55.89c.05 5.28.09 10.55.07 15.83 5.39.5 10.82.24 16.2-.34 0-5.15-.11-10.3.05-15.44-5.44.03-10.88-.05-16.32-.05m31.99-.05c-.1 5.37-.46 10.78.42 16.11 2.36-.03 4.73-.05 7.11-.08 27.72.12 55.46-.13 83.19-.25 3.75-.08 7.78.84 11.29-.91 3.37-1.59 7.16-2.84 9.29-6.14-.26 1.26-.51 2.52-.74 3.79 2.05-.13 4.26.07 6.15-.89 2.28-1.28 4.07-3.23 5.9-5.06 1.2-.15 2.4-.35 3.61-.5.2-.87.41-1.73.63-2.59 3.94 1.8 8.05 3.2 12.25 4.29-.22 1.63-.43 3.26-.66 4.89-.53-1.32-1.05-2.64-1.57-3.96-2.84.78-5.3 2.45-6.64 5.15 5.87 2.41 12.29 2.02 18.5 1.95 24.12.23 48.25.43 72.37.14 16.63-1.07 33.29.53 49.94.07.17-5.19.12-10.39-.14-15.58-1.27.06-2.54.12-3.8.19l.2 1.89c-3.34-2.24-7.37-2.71-11.28-2.21-9.76-.61-19.54-.21-29.31-.34-26.66.3-53.33-.23-79.99.11-48.91.2-97.81-.15-146.72-.07zm26.21 314.42c1.89.66 3.8 1.29 5.72 1.89-.01 3.52-.04 7.04-.06 10.57-1.49.02-2.98.02-4.46.05.28-1.24.57-2.47.86-3.7-.53-.44-1.05-.86-1.57-1.3-.07-2.51-.25-5.02-.49-7.51zM19.73 459.7c1.32-1.3 2.31-3.5 4.44-3.45 3.48-.31 6.42 1.85 9.41 3.25-1.51 1.34-3.01 2.69-4.5 4.07-.42-2.05-.69-4.12-1.06-6.17-2.72.94-5.42 1.94-8.29 2.3z" fill="#5dabf3"/><path fill="#3c8ddd" d="M88.17 248.53c5.24 1.76 10.81 2.07 16.1.34-.02.57-.05 1.71-.06 2.28-.22 4.37.06 8.75.44 13.11 5.14.01 10.3.16 15.42-.28l.96-.12c.38-5 .23-10.02-.04-15.02 10.06 2.54 20.47.58 30.7 1.29.04 12.68-.27 25.36.16 38.04 5.39.29 10.8.26 16.19-.1l.03-4.88c.73.04 2.21.13 2.94.17-.39 11.55-.16 23.11-.4 34.67-.11 3.54.5 7.11 2.08 10.31 3.04 6.22 5.34 12.75 7.8 19.21 2.24 5.84 3.65 12.13 7.49 17.2 2.32-8.71 1.79-17.83 1.79-26.76-.11-18.56-1.96-37.16.1-55.67 18.54-1.77 37.2-2.23 55.7-4.35 5.68 2.96 12.19 2.26 18.35 2.08-.03-1.45-.07-2.9-.1-4.34 11.27-4.33 23.81-2.07 35.32-5.42 3.01-.83 5.88-2.11 8.85-3.04 3.26.93 6.57 1.81 9.99 1.68 10.57-.26 21.14-.01 31.71-.16.08-3.2.17-6.4.27-9.6l.95.03c.42 8.98-.26 18 .98 26.93.02.4.07 1.2.1 1.6 5.31 0 10.62.12 15.94.19.56-10.76-.16-21.52-.23-32.28 6.41-2.89 13.53-1.43 20.3-1.62 13.85-.19 27.71.4 41.55-.26l1.05-4.95c.17 2.44.35 4.87.49 7.3.08 2.52.22 5.04.33 7.56 2.2.15 4.39.3 6.6.35 1.54 0 3.08-.06 4.63-.11 4.17-.14 8.34-.1 12.51-.02.19 17.03.06 34.07.1 51.11-.11 22.87.39 45.76-.23 68.62-2.5.03-4.99.1-7.48.13-7.96-.14-15.92-.1-23.88-.01-.15 5.19-.16 10.39.02 15.58l5.13.09c8.88.14 17.75.03 26.63.13.1 14.16.01 28.32.06 42.48-.05 3.56 1.09 7.06.87 10.61-.5 2.93-3.98 2.95-6.3 3.01-22.31-.23-44.62-.16-66.94-.08-5.23.01-10.46-.03-15.69-.09.46-13.37.34-26.76.24-40.13-5.23 0-10.46.03-15.69.02v2.36c-.37 11.04-.26 22.09-.13 33.13-.02 1.57-.08 3.15-.12 4.73-1.56-.02-3.11-.02-4.66-.01-13.45.04-26.9-.27-40.34-.13-4.67.01-9.33.17-13.99.21-1.99-.02-3.98-.03-5.96-.05-7.52-.12-15.05-.18-22.56-.03-1.15-7.83-.38-15.71-.49-23.57-5.16-.6-10.35-.68-15.53-.67.03 8.07.4 16.16-.39 24.21-10.6-.06-21.2-.19-31.79.17.58 1.08 1.18 2.16 1.78 3.24-7.36-4.98-16.49-3.25-24.83-3.47-8.19-.2-16.39-.19-24.58.14-.18-5.5-.27-11-.26-16.51.02-3.53.05-7.05.06-10.57.05-4.4 0-8.79-.24-13.17-5.2.05-10.41.09-15.61.06.02 13.28.16 26.56-.15 39.84-31.8-.03-63.61.2-95.41-.05-.7-18.53.33-37.08-.38-55.6 10.68-.27 21.36.08 32.03-.13.18-5.36.09-10.72-.27-16.07-10.53.3-21.07.14-31.6.08.18-39.78-.28-79.56.2-119.34 10.5.1 21-.32 31.51-.36.21-5.09.33-10.19-.12-15.27m64.01 54.79c-.11 5.24-.4 10.47-.38 15.71 5.32-.39 10.66-.35 15.99-.14-.07-5.19-.2-10.37-.13-15.56-5.16 0-10.32.02-15.48-.01m199.96-.03c-.32 5.14-.32 10.3-.02 15.44 5.19.09 10.38.18 15.57.13-.13-5.18-.16-10.36-.04-15.54-5.17-.03-10.34 0-15.51-.03m-215.81 80.78c-.05 5.19.05 10.38.07 15.57 11.53-.52 23.07.6 34.59-.27 18-.39 36.01.19 54.01-.16 7.16-.17 14.36.36 21.49-.6 2.57 1.14 5.4.56 8.07.19 1.52.34 2.42-1.91 3.62-2.67.62 1.01 1.24 2.03 1.86 3.06 3.59.09 7.18.08 10.77-.06.92-1.33 1.85-2.65 2.8-3.96l1.59 3.93c20.59-.11 41.18.38 61.77.25 11.22-.54 22.46 1.69 33.64-.1 12.25-.14 24.51.4 36.76.15.15-5.23.17-10.46 0-15.68-13.18.18-26.37-.37-39.53.42-1.96-.08-3.9-.4-5.84-.59-16.66-.07-33.33.07-49.99.33-5.7-.13-11.41-.44-17.09.02-7.46.67-15.01-.76-22.4.68-3.05.92-4.39 4.03-5.85 6.56-.44-.6-.88-1.2-1.32-1.79.61-1.68 1.19-3.37 1.78-5.06-8.1-.73-16.25-.57-24.36-.3-.35.04-1.03.1-1.38.14-5.78-.63-11.59-.22-17.38-.32-10.67-.02-21.35-.39-32.01.15-7.87.37-15.76.48-23.6-.37-10.7-.98-21.37 1-32.07.48m-32.1-.3c.36 5.18.04 10.38.44 15.55 5.28.69 10.61.19 15.92.28.04-5.31.09-10.62-.24-15.92-4.02-.06-8.05-.07-12.07.08-1.35-.01-2.7-.01-4.05.01z"/></svg>