<svg width="1018" height="1018" viewBox="0 0 1018 1018" xmlns="http://www.w3.org/2000/svg"><title>arayofsunshine</title><defs><linearGradient x1="15.987%" y1=".208%" x2="84.012%" y2="99.792%" id="a"><stop stop-color="#F5CF87" offset="0%"/><stop stop-color="#C9A478" offset="100%"/></linearGradient><linearGradient x1="50.006%" y1="100.159%" x2="49.994%" y2="-.159%" id="b"><stop stop-color="#F5CF87" offset="0%"/><stop stop-color="#C9A478" offset="100%"/></linearGradient><linearGradient x1="50%" y1="0%" x2="50%" y2="100%" id="c"><stop stop-color="#F5CF87" offset="0%"/><stop stop-color="#C9A478" offset="100%"/></linearGradient><linearGradient x1="50%" y1="0%" x2="50%" y2="100%" id="d"><stop stop-color="#C9A478" offset="0%"/><stop stop-color="#9B7F5D" offset="100%"/></linearGradient><linearGradient x1="50%" y1="0%" x2="50%" y2="100%" id="e"><stop stop-color="#4396CC" offset="0%"/><stop stop-color="#03568C" offset="100%"/></linearGradient><linearGradient x1="50%" y1="0%" x2="50%" y2="100%" id="f"><stop stop-color="#F5CF87" offset="0%"/><stop stop-color="#D3AE7B" offset="97.6%"/></linearGradient><linearGradient x1="50%" y1="0%" x2="50%" y2="100%" id="g"><stop stop-color="#F5CF87" offset="0%"/><stop stop-color="#D3AE7B" offset="97.6%"/></linearGradient><linearGradient x1="50%" y1="0%" x2="50%" y2="100%" id="h"><stop stop-color="#F5CF87" offset="0%"/><stop stop-color="#D3AE7B" offset="97.6%"/></linearGradient></defs><g fill="none"><path d="M701.882 1016.445c-2.748.29-5.507-4.553-6.162-10.813l-82.8-789.1c-.657-6.26 1.036-11.57 3.782-11.86l32.576-3.417c2.746-.288 5.506 4.554 6.162 10.815l82.8 789.1c.654 6.263-1.038 11.57-3.784 11.858l-32.573 3.417h-.001z" fill="#825A33"/><path d="M520.882 1017.445c-2.748.29-5.513-4.61-6.176-10.942l-83.73-798c-.664-6.333 1.02-11.7 3.77-11.987l32.577-3.418c2.746-.29 5.512 4.61 6.176 10.942l83.733 798c.662 6.334-1.024 11.7-3.77 11.987l-32.577 3.415-.003.002v.001z" fill="url(#a)" transform="translate(187)"/><path d="M282.265 1007.848c-2.744-.317-4.41-5.402-3.722-11.36l86.77-750.844c.69-5.958 3.47-10.53 6.216-10.214l32.537 3.76c2.743.317 4.41 5.404 3.72 11.362l-86.77 750.842c-.687 5.96-3.47 10.53-6.212 10.214l-32.537-3.76h-.002z" fill="#825A33"/><path d="M88.979 1008.848c-2.744-.317-4.41-5.402-3.722-11.36l86.77-750.844c.69-5.958 3.47-10.53 6.215-10.214l32.537 3.76c2.743.317 4.41 5.404 3.72 11.362l-86.77 750.842c-.688 5.96-3.473 10.53-6.215 10.214l-32.537-3.76h.002z" fill="url(#b)" transform="translate(187)"/><path d="M343.622 191a6 6 0 0 1-6 6h-30.754a6 6 0 0 1-6-6V6a6 6 0 0 1 6-6h30.754a6 6 0 0 1 6 6v185z" fill="url(#c)" transform="translate(187)"/><path d="M343.622 861.518a6 6 0 0 1-6 6h-30.754a6 6 0 0 1-6-6v-315a6 6 0 0 1 6-6h30.754c3.314 0 6 2.69 6 6v315z" fill="url(#d)" transform="translate(187)"/><path d="M631.02 600.763H13.47c-7.325 0-13.47-5.912-13.47-13.48v-422.49c0-7.33 5.91-13.477 13.47-13.477h617.552c7.332 0 13.47 5.913 13.47 13.48v422.49c0 7.33-6.142 13.477-13.472 13.477z" fill="url(#e)" transform="translate(187)"/><path d="M716.437 747.374c0 10.332-10.364 18.707-23.15 18.707H325.205c-12.787 0-23.15-8.375-23.15-18.707v-2.575c0-10.33 10.363-18.703 23.15-18.703h368.082c12.786 0 23.15 8.375 23.15 18.705v2.576-.003z" fill="#AF774A"/><path d="M531.583 753.376c0 10.35-10.472 18.74-23.392 18.74h-371.89c-12.92 0-23.392-8.39-23.392-18.74v-2.58c0-10.35 10.473-18.74 23.39-18.74h371.896c12.917 0 23.388 8.39 23.388 18.74v2.58z" fill="url(#f)" transform="translate(187)"/><path d="M606.109 148.608c0 11.045-8.808 20-19.668 20H432.049c-10.86 0-19.668-8.955-19.668-20v-2.756c0-11.046 8.808-20 19.668-20h154.396c10.858 0 19.667 8.954 19.667 20l-.003 2.756z" fill="#AF774A"/><path d="M420.745 143.608c0 11.045-8.954 20-20 20h-157c-11.046 0-20-8.955-20-20v-2.756c0-11.046 8.954-20 20-20h157c11.046 0 20 8.954 20 20v2.756z" fill="url(#g)" transform="translate(187)"/><path d="M744.081 605.464c0 11.046-11.748 20-26.238 20H300.649c-14.492 0-26.24-8.954-26.24-20v-2.756c0-11.046 11.748-20 26.24-20h417.19c14.49 0 26.242 8.954 26.242 20v2.756z" fill="#AF774A"/><path d="M559.245 611.088c0 11.045-8.954 20-20 20h-434c-11.046 0-20-8.955-20-20v-2c0-11.05 8.954-20 20-20h434c11.046 0 20 8.95 20 20v2z" fill="url(#h)" transform="translate(187)"/><text fill-opacity=".742" fill="#FFF" font-family="Impact" font-size="75" font-style="condensed" font-weight="700" transform="translate(187)"><tspan x="61" y="397">A ray of sunshine</tspan></text></g></svg>