<?xml version="1.0" encoding="UTF-8"?>
<svg width="1018px" height="1018px" viewBox="0 0 1018 1018" version="1.1" xmlns="http://www.w3.org/2000/svg" xmlns:xlink="http://www.w3.org/1999/xlink">
    <!-- Generator: Sketch 52 (66869) - http://www.bohemiancoding.com/sketch -->
    <title>logo</title>
    <desc>Created with Sketch.</desc>
    <defs>
        <linearGradient x1="15.987386%" y1="0.20829264%" x2="84.0117601%" y2="99.7916402%" id="linearGradient-1">
            <stop stop-color="#F5CF87" offset="0%"></stop>
            <stop stop-color="#C9A478" offset="100%"></stop>
        </linearGradient>
        <linearGradient x1="50.0060451%" y1="100.158997%" x2="49.9944654%" y2="-0.15905162%" id="linearGradient-2">
            <stop stop-color="#F5CF87" offset="0%"></stop>
            <stop stop-color="#C9A478" offset="100%"></stop>
        </linearGradient>
        <linearGradient x1="50%" y1="-1.39764117e-14%" x2="50%" y2="100%" id="linearGradient-3">
            <stop stop-color="#F5CF87" offset="0%"></stop>
            <stop stop-color="#C9A478" offset="100%"></stop>
        </linearGradient>
        <linearGradient x1="50%" y1="0%" x2="50%" y2="100%" id="linearGradient-4">
            <stop stop-color="#C9A478" offset="0%"></stop>
            <stop stop-color="#9B7F5D" offset="100%"></stop>
        </linearGradient>
        <linearGradient x1="49.9999999%" y1="3.16185328e-14%" x2="49.9999999%" y2="100%" id="linearGradient-5">
            <stop stop-color="#4396CC" offset="0%"></stop>
            <stop stop-color="#03568C" offset="100%"></stop>
        </linearGradient>
        <linearGradient x1="50%" y1="0%" x2="50%" y2="100%" id="linearGradient-6">
            <stop stop-color="#F5CF87" offset="0%"></stop>
            <stop stop-color="#D3AE7B" offset="97.6%"></stop>
        </linearGradient>
    </defs>
    <g id="Page-1" stroke="none" stroke-width="1" fill="none" fill-rule="evenodd">
        <g id="Group" transform="translate(186.000000, 0.000000)">
            <g id="下载-(1)">
                <path d="M515.637,1016.717 C512.889,1017.007 510.13,1012.164 509.475,1005.904 L426.675,216.804 C426.018,210.544 427.711,205.234 430.457,204.944 L463.033,201.527 C465.779,201.239 468.539,206.081 469.195,212.342 L551.995,1001.442 C552.649,1007.705 550.957,1013.012 548.211,1013.3 L515.638,1016.717 L515.637,1016.717 Z" id="Path" fill="#825A33"></path>
                <path d="M521.637,1017.717 C518.889,1018.007 516.124,1013.107 515.461,1006.775 L431.731,208.775 C431.067,202.442 432.751,197.075 435.501,196.788 L468.078,193.37 C470.824,193.08 473.59,197.98 474.254,204.312 L557.987,1002.312 C558.649,1008.646 556.963,1014.012 554.217,1014.299 L521.64,1017.714 L521.637,1017.716 L521.637,1017.717 Z" id="Path" fill="url(#linearGradient-1)"></path>
                <path d="M96.02,1008.12 C93.276,1007.803 91.61,1002.718 92.298,996.76 L179.068,245.916 C179.758,239.958 182.538,235.386 185.284,235.702 L217.821,239.462 C220.564,239.779 222.231,244.866 221.541,250.824 L134.771,1001.666 C134.084,1007.626 131.301,1012.196 128.559,1011.88 L96.022,1008.12 L96.02,1008.12 Z" id="Path" fill="#825A33"></path>
                <path d="M89.734,1009.12 C86.99,1008.803 85.324,1003.718 86.012,997.76 L172.782,246.916 C173.472,240.958 176.252,236.386 178.997,236.702 L211.534,240.462 C214.277,240.779 215.944,245.866 215.254,251.824 L128.484,1002.666 C127.796,1008.626 125.011,1013.196 122.269,1012.88 L89.732,1009.12 L89.734,1009.12 Z" id="Path" fill="url(#linearGradient-2)"></path>
                <path d="M344.377,191.272 C344.377,194.585708 341.690708,197.272 338.377,197.272 L307.623,197.272 C304.309292,197.272 301.623,194.585708 301.623,191.272 L301.623,6.272 C301.623,2.9582915 304.309292,0.272 307.623,0.272 L338.377,0.272 C341.690708,0.272 344.377,2.9582915 344.377,6.272 L344.377,191.272 Z" id="Path" fill="url(#linearGradient-3)"></path>
                <path d="M344.377,861.79 C344.377,865.103708 341.690708,867.79 338.377,867.79 L307.623,867.79 C304.309292,867.79 301.623,865.103708 301.623,861.79 L301.623,546.79 C301.623,543.476292 304.309292,540.79 307.623,540.79 L338.377,540.79 C341.691,540.79 344.377,543.48 344.377,546.79 L344.377,861.79 Z" id="Path" fill="url(#linearGradient-4)"></path>
                <path d="M631.775,601.035 L14.225,601.035 C6.9,601.035 0.755,595.123 0.755,587.555 L0.755,165.065 C0.755,157.735 6.665,151.588 14.225,151.588 L631.777,151.588 C639.109,151.588 645.247,157.501 645.247,165.068 L645.247,587.558 C645.25,594.888 639.105,601.036 631.775,601.035 Z" id="Path" fill="url(#linearGradient-5)"></path>
                <path d="M530.19,747.646 C530.19,757.978 519.828,766.353 507.042,766.353 L138.96,766.353 C126.173,766.353 115.81,757.978 115.81,747.646 L115.81,745.071 C115.81,734.741 126.173,726.368 138.96,726.368 L507.042,726.368 C519.828,726.368 530.192,734.743 530.192,745.073 L530.192,747.649 L530.19,747.649 L530.19,747.647 L530.19,747.646 Z" id="Path" fill="#AF774A"></path>
                <path d="M532.336,753.648 C532.336,763.998 521.866,772.388 508.946,772.388 L137.056,772.388 C124.136,772.388 113.664,763.998 113.664,753.648 L113.664,751.068 C113.664,740.718 124.137,732.328 137.054,732.328 L508.95,732.328 C521.867,732.328 532.338,740.718 532.338,751.068 L532.336,753.648 Z" id="Path" fill="url(#linearGradient-6)"></path>
                <path d="M419.864,148.88 C419.864,159.925 411.056,168.88 400.196,168.88 L245.804,168.88 C234.944,168.88 226.136,159.925 226.136,148.88 L226.136,146.124 C226.136,135.078 234.944,126.124 245.804,126.124 L400.2,126.124 C411.058,126.124 419.867,135.078 419.867,146.124 L419.864,148.88 Z" id="Path" fill="#AF774A"></path>
                <path d="M421.5,143.88 C421.5,154.925 412.546,163.88 401.5,163.88 L244.5,163.88 C233.454,163.88 224.5,154.925 224.5,143.88 L224.5,141.124 C224.5,130.078 233.454,121.124 244.5,121.124 L401.5,121.124 C412.546,121.124 421.5,130.078 421.5,141.124 L421.5,143.88 Z" id="Path" fill="url(#linearGradient-6)"></path>
                <path d="M557.836,605.736 C557.836,616.782 546.088,625.736 531.598,625.736 L114.404,625.736 C99.912,625.736 88.164,616.782 88.164,605.736 L88.164,602.98 C88.164,591.934 99.912,582.98 114.404,582.98 L531.594,582.98 C546.084,582.98 557.834,591.934 557.834,602.98 L557.836,605.736 Z" id="Path" fill="#AF774A"></path>
                <path d="M560,611.36 C560,622.405 551.046,631.36 540,631.36 L106,631.36 C94.954,631.36 86,622.405 86,611.36 L86,609.36 C86,598.31 94.954,589.36 106,589.36 L540,589.36 C551.046,589.36 560,598.31 560,609.36 L560,611.36 Z" id="Path" fill="url(#linearGradient-6)"></path>
            </g>
        </g>
        <text id="Tomorrow" font-family="Zapfino" font-size="120" font-weight="normal" letter-spacing="-5.76" fill="#FFFFFF" fill-opacity="0.5">
            <tspan x="164.99" y="416">Tomorrow</tspan>
        </text>
    </g>
</svg>