<?xml version="1.0" standalone="no"?>
<!DOCTYPE svg PUBLIC "-//W3C//DTD SVG 20010904//EN"
 "http://www.w3.org/TR/2001/REC-SVG-20010904/DTD/svg10.dtd">
<svg version="1.0" xmlns="http://www.w3.org/2000/svg"
 width="1024.000000pt" height="1024.000000pt" viewBox="0 0 1024.000000 1024.000000"
 preserveAspectRatio="xMidYMid meet">
<metadata>
Created by potrace 1.14, written by Peter Selinger 2001-2017
</metadata>
<g transform="translate(0.000000,1024.000000) scale(0.100000,-0.100000)"
fill="#000000" stroke="none">
<path d="M5037 10136 c-59 -22 -105 -57 -138 -105 -92 -139 -46 -314 105 -394
58 -31 174 -31 232 0 53 28 99 74 127 127 17 32 22 58 22 116 0 84 -20 134
-76 189 -68 69 -188 98 -272 67z"/>
<path d="M4860 8974 c-308 -27 -491 -56 -735 -119 -366 -95 -683 -226 -999
-416 -295 -176 -520 -351 -762 -593 -635 -636 -1012 -1426 -1116 -2341 -16
-143 -16 -627 0 -770 66 -581 241 -1108 523 -1579 176 -295 351 -520 593 -762
636 -635 1426 -1012 2341 -1116 143 -16 627 -16 770 0 580 66 1109 241 1580
523 290 173 520 352 761 593 635 636 1012 1425 1116 2341 16 143 16 627 0 770
-66 581 -241 1108 -523 1579 -176 295 -351 520 -593 762 -625 625 -1405 1002
-2294 1110 -120 14 -563 27 -662 18z m625 -379 c597 -71 1131 -274 1612 -612
861 -604 1400 -1554 1483 -2612 53 -683 -117 -1413 -465 -2007 -564 -961
-1516 -1585 -2625 -1720 -200 -25 -600 -25 -800 0 -875 107 -1659 519 -2229
1171 -507 580 -800 1281 -861 2059 -47 609 82 1252 366 1818 534 1065 1601
1797 2779 1908 61 6 128 12 150 14 84 8 466 -4 590 -19z"/>
<path d="M1627 8696 c-59 -22 -105 -57 -138 -105 -92 -139 -46 -314 105 -394
58 -31 174 -31 232 0 53 28 99 74 127 127 31 58 31 174 0 232 -28 53 -75 99
-126 126 -52 26 -149 33 -200 14z"/>
<path d="M8447 8696 c-59 -22 -105 -57 -138 -105 -92 -139 -46 -314 105 -394
58 -31 174 -31 232 0 53 28 99 74 127 127 17 32 22 58 22 116 0 84 -20 134
-76 189 -68 69 -188 98 -272 67z"/>
<path d="M187 5286 c-59 -22 -105 -57 -138 -105 -92 -139 -46 -314 105 -394
58 -31 174 -31 232 0 53 28 99 74 127 127 31 58 31 174 0 232 -28 53 -75 99
-126 126 -52 26 -149 33 -200 14z"/>
<path d="M9887 5286 c-59 -22 -105 -57 -138 -105 -92 -139 -46 -314 105 -394
58 -31 174 -31 232 0 53 28 99 74 127 127 17 32 22 58 22 116 0 84 -20 134
-76 189 -68 69 -188 98 -272 67z"/>
<path d="M1627 1876 c-59 -22 -105 -57 -138 -105 -92 -139 -46 -314 105 -394
58 -31 174 -31 232 0 53 28 99 74 127 127 31 58 31 174 0 232 -28 53 -75 99
-126 126 -52 26 -149 33 -200 14z"/>
<path d="M8447 1876 c-59 -22 -105 -57 -138 -105 -92 -139 -46 -314 105 -394
58 -31 174 -31 232 0 53 28 99 74 127 127 17 32 22 58 22 116 0 84 -20 134
-76 189 -68 69 -188 98 -272 67z"/>
<path d="M5037 616 c-59 -22 -105 -57 -138 -105 -92 -139 -46 -314 105 -394
58 -31 174 -31 232 0 53 28 99 74 127 127 17 32 22 58 22 116 0 84 -20 134
-76 189 -68 69 -188 98 -272 67z"/>
</g>
</svg>
