<svg width="1024pt" height="1024pt" viewBox="0 0 1024 1024" xmlns="http://www.w3.org/2000/svg"><path fill="#eb4f38" d="M484.24 17.23c4.53-1.05 9.05-2.19 13.6-3.19 9.99.07 20.01-.11 29.99.09 5.82 1.6 11.88 2.43 17.57 4.48 3.03 2.32 6.21 4.43 9.25 6.74 2.36 3.16 4.63 6.39 6.94 9.59 1.37 7.35 4.49 14.51 3.97 22.08-.05 23.25.1 46.51-.07 69.75 2.54.47 5.02 1.37 7.66 1.19 13.69 2.92 27.48 5.56 40.95 9.42 12.16 3.36 24.51 6.1 36.05 11.04 6.75 2.4 13.29 5.46 20.01 8.02 11.51 4.75 22.29 11.26 33.39 16.93 5.94 3.79 12.04 7.32 17.86 11.29 8.47 4.68 15.92 10.98 23.64 16.76 3.7-3.02 7.13-6.53 10.13-10.24 3.79-3.89 8.14-7.15 11.69-11.3 2.7-3.94 6.92-6.37 10.04-9.94 3.56-3.11 5.99-7.31 9.91-10.04 4.86-4.09 8.49-9.36 13.29-13.51 4.25-2.63 7.78-6.91 12.94-7.66 4.9-1.09 9.76-2.44 14.67-3.39 5.38 1.38 10.8 2.57 16.19 3.89 3.62 2.3 6.98 5.02 10.54 7.44 5.99 5.98 11.91 12.03 17.96 17.96 4.02 3.67 6.84 8.42 9.93 12.86 1.26 5.54 2.63 11.06 3.9 16.6-1.2 5.41-2.61 10.77-3.78 16.19-2.19 4.35-5.43 8.02-8.12 12.05-4.4 3.09-7.82 7.38-11.68 11.09-1.36 2.73-4.27 3.87-6.17 6.1-2.87 3.08-6.22 5.74-8.71 9.13-4.85 4.37-9.9 8.96-13.96 14.17-5.14 4.06-9.73 8.93-14 13.86 4.03 4.57 7 9.98 10.63 14.87 3.52 5.2 7.21 10.29 10.6 15.58 2.14 4.9 5.49 9.12 7.95 13.85 7.27 12.56 12.98 25.95 19.37 38.97.93 5.29 3.76 9.99 5.26 15.09 1.66 4.02 2.6 8.27 4.47 12.23 4.57 13.93 7.33 28.46 10.82 42.74 2.07 9.6 4.29 19.21 5.32 28.96 25.61.01 51.21 0 76.82 0 5.59 1.1 11.12 2.58 16.68 3.87 3.4 2.36 6.78 4.78 10.09 7.27 2.25 3.37 4.82 6.53 7.03 9.94 1.31 5.68 2.71 11.34 4.01 17.02.01 10.32-.02 20.65.01 30.97-1.41 6.07-2.56 12.27-4.48 18.2-2.31 3.09-4.49 6.27-6.79 9.37-3.11 2.32-6.33 4.49-9.42 6.85-5.75 1.4-11.51 2.82-17.29 4.07-26.7.01-53.4-.02-80.11.01-.94 7.89-2.74 15.63-4.35 23.41-1.31 9.09-3.98 17.96-6.05 26.92-3.4 12.52-8.05 24.67-12.33 36.94-3.87 10.34-8.91 20.28-13.67 30.32-3.02 6.76-7.01 12.98-10.65 19.42-.81 1.82-2.41 3.23-2.64 5.3-8.26 11.95-15.85 24.34-24.8 35.78 2.08 1.22 4.07 2.67 5.26 4.83 2.97 3.04 5.96 6.06 9.02 9.01 3.18 1.76 4.72 5.17 7.42 7.47 2.81 2.61 5.19 5.73 8.44 7.84 4.23 5.3 9.27 9.99 14.38 14.42 2.65 3.59 6.08 6.54 9.19 9.75 4.02 2.78 6.13 7.49 9.15 11.28 1.22 4.97 2.34 9.95 3.56 14.93 1.14 3.5-.89 6.97-1.36 10.43-1.27 3.97-1.14 8.57-4.03 11.83-2.65 3.24-4.52 7.29-8.11 9.64-4.25 3.48-7.45 7.95-11.38 11.74-2.75 2.2-5.58 4.54-7.51 7.54-3.22 2.21-6.32 4.59-9.54 6.8-5.35 1.36-10.75 2.48-16.09 3.88-5.3-1.12-10.54-2.53-15.84-3.67-3.69-1.48-6.68-4.16-9.91-6.39-3.5-2.1-5.34-5.89-8.5-8.41-2.73-3.36-6.76-5.35-9.05-9.05l-8.97-8.97c-3-1.61-4.46-4.78-6.94-6.94-2.04-2.02-4.04-4.06-6.07-6.07-3.37-1.91-5.02-5.58-7.98-7.97-2.95-3.34-6.53-6.01-9.51-9.23-8.64 6.63-17.79 12.58-26.71 18.82-10.5 5.77-20.27 12.99-31.35 17.59-4.39 1.84-8.19 4.92-12.76 6.23-3.66 1.81-7.34 3.59-11 5.4-6.45 1.24-12.06 4.87-18.41 6.46-11.93 4.73-24.26 8.23-36.89 10.91-14.1 3.18-28.12 7.11-42.49 8.69.02 26.19-.03 52.37.02 78.56-1.16 5.58-2.61 11.11-3.88 16.68-2.11 3.41-4.7 6.5-6.92 9.85-3.56 2.48-6.95 5.26-10.66 7.52-5.58 1.31-11.13 2.71-16.72 3.92-10.02-.11-20.05.08-30.06-.09-5.64-1.55-11.49-2.42-17.02-4.29-3.3-2.2-6.48-4.61-9.7-6.93-2.35-3.12-4.53-6.35-6.88-9.46-1.38-5.76-2.86-11.51-4.04-17.3.05-26.56-.09-53.12.06-79.68-16.84-3-33.59-6.41-50.24-10.31-9.52-2.48-18.81-5.7-28.06-8.82-5.45-1.86-10.78-4.36-16.39-5.73-8.8-4.22-17.79-7.94-26.38-12.65-3.57-.49-6.12-3.3-9.33-4.65-6.36-3.04-11.94-7.47-18.24-10.63-10.7-6.52-20.66-14.15-30.94-21.29-6.32 4.3-10.59 11.29-16.72 16-4.59 4.43-8.55 9.51-13.54 13.53-5.41 5.63-10.76 11.3-16.55 16.54-5.26 6.38-11.57 11.74-18.58 16.1-5.53 1.27-11.03 2.63-16.56 3.89-5.61-1.3-11.22-2.59-16.8-4-3.44-2.33-6.76-4.83-10.13-7.25-6.15-6.15-12.31-12.3-18.46-18.45-4.04-3.7-6.89-8.45-9.98-12.92-1.25-5.48-2.63-10.93-3.85-16.41 1.29-5.57 2.64-11.12 3.93-16.68 2.28-3.59 4.9-6.95 7.37-10.39 18.29-18.35 36.65-36.64 54.94-54.98-6.09-8.93-12.53-17.6-18.61-26.54-4.27-8.26-9.65-15.93-14.09-24.09-4.64-11.32-11.62-21.8-15.25-33.53-3.92-9.2-7.08-18.53-10.43-27.87-5.93-21.84-11.49-43.91-15.6-66.17-25.65-.07-51.31.04-76.95-.06-5.61-1.39-11.25-2.66-16.86-4.03-3.69-2.23-7.02-5.07-10.63-7.43-2.18-3.38-4.83-6.45-6.9-9.9-1.21-5.47-2.67-10.88-3.8-16.36.03-10.1.03-20.19 0-30.27 1.16-5.49 2.59-10.92 3.81-16.39 2.11-3.4 4.68-6.48 6.89-9.82 3.37-2.8 7.06-5.22 10.62-7.78 5.55-1.32 11.1-2.76 16.69-3.89 25.61-.08 51.24.19 76.83-.14 2.95-21.76 9.12-43.02 14.54-64.31 3.74-13 9.42-25.33 14.07-38.07 4.61-9.91 9.84-19.51 14.62-29.33 6.65-10.48 12.44-21.5 19.94-31.43 4.82-6.5 9.13-13.36 14.13-19.73-18.29-18.42-36.72-36.72-55.05-55.11-2.38-3.45-5-6.73-7.26-10.26-1.27-5.52-2.65-11.01-3.88-16.54 1.28-5.6 2.62-11.2 3.97-16.79 2.18-3.26 4.59-6.37 6.83-9.6 3.61-3.78 7.68-7.02 11.27-10.83 5.71-6.86 12.65-12.52 20.04-17.48 5.67-1.35 11.34-2.72 17.02-4.02 5.67 1.32 11.33 2.66 16.99 4.03 3.66 2.19 6.95 4.94 10.49 7.33 18.24 18.41 36.64 36.67 54.93 55.01 10.47-8.04 21.39-15.59 32.77-22.29 5.29-2.95 9.93-7.2 15.78-9.03 6.37-4.04 13.52-6.71 19.89-10.74 14.47-6.09 29.14-12.12 43.98-17.2 8.2-1.81 16.21-4.38 24.33-6.48 14.01-3.73 28.31-6.44 42.52-9.08-.06-24.96.02-49.92-.04-74.88 1.27-5.76 2.58-11.55 4.12-17.24 2.28-3.07 4.48-6.2 6.71-9.32 4.61-2.71 8.3-7.39 13.8-8.21m17.01 436.98c-3.57.19-6.79 1.8-10.14 2.83-3.01 1.7-5.95 3.79-9.35 4.6-13.61 7.81-23.09 21.52-27.7 36.31.19 2.13-.42 4.19-.89 6.25-.21 7.77-.39 15.64 1.27 23.2 2.54 7.58 6.53 14.58 11.15 21.07 5.65 6.12 11.7 12.58 19.76 15.27 5.96 3.5 12.56 6.51 19.66 6.2 7.94-.33 16.35 1.2 23.81-2.31 4.3-.9 7.35-4.56 11.67-5.36 13.84-8.2 23.38-22.12 27.86-37.36.85-4.27.49-8.65.99-12.95-.69-5.67.25-11.72-2.4-17.01-4.07-11.43-10.96-21.81-20.67-29.22-2.4-1.67-4.56-4.02-7.58-4.46-3.24-1.32-5.87-3.85-9.31-4.73-8.84-3.93-18.76-2.18-28.13-2.33z"/><path fill="#fff" d="M501.25 454.21c9.37.15 19.29-1.6 28.13 2.33 3.44.88 6.07 3.41 9.31 4.73 3.02.44 5.18 2.79 7.58 4.46 9.71 7.41 16.6 17.79 20.67 29.22 2.65 5.29 1.71 11.34 2.4 17.01-.5 4.3-.14 8.68-.99 12.95-4.48 15.24-14.02 29.16-27.86 37.36-4.32.8-7.37 4.46-11.67 5.36-7.46 3.51-15.87 1.98-23.81 2.31-7.1.31-13.7-2.7-19.66-6.2-8.06-2.69-14.11-9.15-19.76-15.27-4.62-6.49-8.61-13.49-11.15-21.07-1.66-7.56-1.48-15.43-1.27-23.2.47-2.06 1.08-4.12.89-6.25 4.61-14.79 14.09-28.5 27.7-36.31 3.4-.81 6.34-2.9 9.35-4.6 3.35-1.03 6.57-2.64 10.14-2.83z"/></svg>