<svg width="1024" height="1024" viewBox="0 0 1024 1024" xmlns="http://www.w3.org/2000/svg"><title>a ray of sunshine</title><g fill="none" fill-rule="evenodd"><path d="M509 161.925c-193.036 0-350.093 157.057-350.093 350.093 0 193.036 157.057 350.093 350.093 350.093 193.036 0 350.093-157.057 350.093-350.093 0-193.036-157.057-350.093-350.093-350.093z" fill="#FFF"/><path d="M144 512.5C144 716.017 308.983 881 512.5 881S881 716.017 881 512.5 716.017 144 512.5 144 144 308.983 144 512.5z" fill="#FFF5C7" fill-rule="nonzero"/><path d="M509 898c-212.839 0-386-173.161-386-386s173.161-386 386-386 386 173.161 386 386c0 212.857-173.161 386-386 386zm0-736.075c-193.036 0-350.093 157.057-350.093 350.093 0 193.036 157.057 350.093 350.093 350.093 193.036 0 350.093-157.057 350.093-350.093 0-193.036-157.057-350.093-350.093-350.093zM485 36c0 14.912 12.088 27 27 27s27-12.088 27-27-12.088-27-27-27-27 12.088-27 27zm341 144c0 14.912 12.088 27 27 27s27-12.088 27-27a27 27 0 1 0-54 0zm144 341c0 14.912 12.088 27 27 27s27-12.088 27-27-12.088-27-27-27-27 12.088-27 27zM0 521c0 14.912 12.088 27 27 27s27-12.088 27-27-12.088-27-27-27-27 12.088-27 27zm144-341a27 27 0 1 0 54 0c0-14.912-12.088-27-27-27s-27 12.088-27 27zm0 682a27 27 0 1 0 54 0c0-14.912-12.088-27-27-27s-27 12.088-27 27zm682 0c0 14.912 12.088 27 27 27s27-12.088 27-27a27 27 0 1 0-54 0zM485 988c0 14.912 12.088 27 27 27s27-12.088 27-27-12.088-27-27-27-27 12.088-27 27z" fill="#FFD732" fill-rule="nonzero"/></g></svg>
